<?xml version="1.0" standalone="no"?>
<!DOCTYPE svg PUBLIC "-//W3C//DTD SVG 20010904//EN"
 "http://www.w3.org/TR/2001/REC-SVG-20010904/DTD/svg10.dtd">
<svg version="1.0" xmlns="http://www.w3.org/2000/svg"
 width="769.000000pt" height="512.000000pt" viewBox="0 0 769.000000 512.000000"
 preserveAspectRatio="xMidYMid meet">

<g transform="translate(0.000000,512.000000) scale(0.100000,-0.100000)"
fill="#000000" stroke="none">
<path d="M0 2560 l0 -2560 3279 0 3278 0 -5 25 c-2 15 0 25 7 25 6 0 11 -11
11 -25 0 -23 4 -25 41 -25 28 0 46 6 55 18 13 16 13 16 14 0 0 -17 18 -18 239
-18 234 0 240 1 238 20 -1 11 -8 20 -17 20 -8 0 -29 13 -46 29 -24 23 -34 27
-44 18 -10 -9 -11 -7 -5 10 5 19 3 22 -12 16 -16 -6 -16 -5 -4 10 10 13 17 14
35 5 20 -11 20 -10 4 9 -28 31 -21 39 10 12 15 -14 46 -37 69 -52 23 -14 54
-42 68 -62 l27 -35 224 0 224 0 0 1705 0 1705 -50 -25 c-27 -14 -50 -23 -50
-20 0 2 22 16 50 30 l50 25 0 90 c0 50 -4 92 -10 95 -6 4 -50 6 -97 6 -90 -1
-133 14 -133 44 0 8 -7 15 -16 15 -11 0 -15 -6 -11 -20 4 -15 0 -20 -14 -20
-10 0 -19 -5 -19 -11 0 -6 -9 -8 -22 -4 -22 6 -22 6 -4 -9 11 -9 26 -16 33
-16 22 0 14 -16 -14 -30 -22 -10 -24 -14 -11 -17 10 -3 15 -10 11 -19 -3 -8 3
-21 13 -29 18 -14 17 -14 -8 -15 -19 0 -28 5 -28 16 0 8 -4 12 -10 9 -15 -9
-12 -34 5 -52 18 -17 80 -11 89 10 3 8 9 7 19 -5 8 -10 20 -18 26 -18 7 0 10
-4 6 -10 -3 -5 -34 -7 -70 -6 -35 2 -65 1 -67 -3 -2 -3 -25 -17 -52 -31 -26
-14 -61 -43 -77 -65 -16 -22 -47 -58 -69 -80 -22 -22 -42 -53 -46 -70 -9 -50
-29 -69 -66 -62 -18 3 -42 9 -53 13 -18 6 -17 4 4 -19 20 -22 22 -27 8 -27 -9
0 -17 -6 -17 -12 0 -7 -14 -22 -30 -33 -17 -11 -28 -26 -25 -33 3 -10 -1 -11
-16 -7 -15 5 -19 4 -14 -4 4 -7 -20 -36 -59 -72 -35 -33 -67 -68 -69 -77 -2
-9 -3 -5 -1 9 2 15 10 42 18 60 11 23 14 25 10 9 l-7 -25 22 20 c13 11 18 21
12 23 -15 5 -14 19 4 79 8 27 30 70 49 95 20 25 33 48 30 51 -9 9 46 120 80
161 18 23 50 67 70 99 37 58 50 67 60 45 3 -7 4 -4 1 8 -7 28 35 65 59 52 16
-9 16 -7 7 11 -10 17 -9 20 4 15 17 -7 19 -32 5 -69 -22 -58 14 -46 55 18 11
18 21 24 25 17 4 -7 18 -8 33 -4 30 7 35 21 11 31 -8 3 -13 12 -10 19 6 15
-29 20 -37 7 -2 -5 -2 -2 0 5 2 8 6 25 9 38 4 15 2 24 -6 24 -7 0 -10 -7 -7
-14 4 -10 1 -13 -8 -10 -12 5 -12 10 3 30 9 13 20 24 25 24 4 0 7 5 7 11 0 7
17 33 37 58 20 25 38 48 40 51 2 2 9 -2 14 -10 8 -12 9 -10 4 6 -3 13 1 26 10
34 18 15 20 -1 3 -18 -9 -9 -9 -12 1 -12 7 0 9 -5 6 -10 -3 -5 -1 -10 6 -10
10 0 10 -3 1 -12 -7 -7 -12 -19 -12 -28 0 -18 37 -44 45 -31 3 5 -1 12 -7 15
-9 3 -8 8 5 16 14 9 15 15 7 25 -8 9 -8 20 -2 32 5 10 7 24 5 30 -3 7 3 16 12
19 14 6 52 64 41 64 -3 0 -17 -12 -31 -27 -14 -15 -25 -23 -25 -16 0 15 129
134 166 153 16 8 31 16 33 17 2 1 -2 9 -8 17 -15 18 0 76 25 97 12 10 14 48
14 218 l-1 206 -57 -2 -57 -2 58 16 57 15 0 79 c0 79 0 79 -20 59 -11 -11 -35
-21 -55 -21 -19 -1 -39 -2 -45 -3 -24 -2 -12 18 14 25 16 4 37 17 48 28 10 12
28 21 38 21 19 0 20 8 20 170 l0 170 -99 0 c-108 0 -111 -1 -111 -63 0 -18 -4
-37 -8 -42 -8 -13 -121 -37 -133 -29 -20 12 -7 46 31 84 22 22 40 42 40 45 0
3 -932 5 -2071 5 l-2070 0 -32 -30 c-37 -34 -90 -48 -112 -30 -19 16 -11 30
14 23 16 -4 19 -1 14 16 l-5 21 -999 0 -998 0 -7 -35 c-3 -19 -3 -52 2 -72 4
-21 8 -45 8 -53 1 -8 13 -21 28 -28 16 -7 32 -22 38 -32 8 -15 17 -18 39 -14
24 5 32 1 47 -21 18 -27 18 -28 -6 -47 -28 -23 -41 -20 -58 15 -10 22 -17 25
-31 18 -13 -7 -28 -3 -62 20 -50 33 -59 35 -59 14 0 -8 11 -17 24 -21 34 -8
57 -37 62 -76 2 -18 7 -47 10 -63 10 -53 -48 -97 -141 -110 -16 -2 -49 -6 -71
-9 -33 -5 -47 -1 -68 15 -48 37 -27 107 29 97 29 -6 32 7 9 33 -8 9 -16 24
-18 32 -5 38 -59 75 -81 57 -10 -8 -24 -8 -50 -1 -21 5 -50 8 -65 5 -30 -7
-42 3 -68 55 -21 41 -50 57 -129 68 -54 8 -67 6 -93 -10 -34 -21 -70 -15 -70
12 0 24 19 39 58 47 18 4 32 13 32 20 0 15 33 36 52 32 8 -2 14 8 16 25 3 24
0 27 -27 27 -16 0 -42 -5 -56 -12 -19 -9 -28 -9 -37 0 -8 8 -72 12 -210 12
l-198 0 0 -2560z m5460 2536 c0 -3 -4 -8 -10 -11 -5 -3 -10 -1 -10 4 0 6 5 11
10 11 6 0 10 -2 10 -4z m523 -22 c3 -4 2 -15 -4 -25 -15 -29 -99 -24 -99 6 0
7 6 16 13 18 18 8 83 8 90 1z m487 -55 c0 -11 -4 -17 -10 -14 -5 3 -10 13 -10
21 0 8 5 14 10 14 6 0 10 -9 10 -21z m-4702 -13 c-7 -8 -15 -12 -17 -11 -5 6
10 25 20 25 5 0 4 -6 -3 -14z m5128 -10 c7 -31 -1 -46 -27 -46 -28 0 -35 27
-13 50 25 25 32 24 40 -4z m138 -2 c21 -21 20 -33 -6 -61 -27 -29 -43 -29 -62
-2 -34 49 27 105 68 63z m-222 -19 c6 -14 16 -25 23 -25 6 0 18 -11 25 -25 10
-19 21 -25 38 -23 15 2 29 -4 36 -15 9 -15 5 -23 -24 -47 -19 -16 -39 -30 -44
-30 -5 0 -31 22 -57 49 -55 57 -72 107 -43 128 25 18 33 16 46 -12z m-5114
-20 c5 -4 -59 -65 -68 -65 -5 0 -12 -11 -16 -25 -6 -24 -9 -27 -35 -29 -13 -1
-40 71 -33 88 4 12 29 29 73 52 20 11 28 10 50 -4 14 -9 27 -17 29 -17z m299
-42 c67 -8 99 -63 37 -63 -14 0 -27 -7 -30 -15 -9 -22 -47 -18 -62 5 -7 11
-23 20 -37 20 -21 0 -25 5 -25 28 0 38 9 45 45 37 16 -3 49 -9 72 -12z m923
-19 c0 -17 -22 -14 -28 4 -2 7 3 12 12 12 9 0 16 -7 16 -16z m4607 -20 c7 -20
-29 -54 -57 -54 -17 0 -40 37 -33 56 2 5 21 11 43 12 30 2 42 -1 47 -14z m45
-89 c-6 -32 -20 -41 -39 -23 -14 14 -14 20 -3 33 18 22 46 15 42 -10z m-7033
-3 c12 -23 -1 -45 -22 -36 -25 9 -21 54 4 54 5 0 13 -8 18 -18z m5321 -26 c0
-3 -4 -8 -10 -11 -5 -3 -10 -1 -10 4 0 6 5 11 10 11 6 0 10 -2 10 -4z m-5325
-80 c19 8 29 -14 14 -32 -12 -14 -14 -14 -26 2 -7 10 -13 25 -12 33 0 10 2 11
5 4 3 -7 11 -10 19 -7z m141 -7 c3 -6 17 -9 30 -6 13 2 32 -2 41 -9 17 -12 16
-15 -11 -40 -27 -26 -28 -30 -22 -86 7 -59 -4 -95 -25 -82 -5 3 -9 -4 -9 -15
0 -11 5 -23 10 -26 16 -10 12 -23 -9 -35 -15 -7 -28 -6 -53 8 -18 9 -36 21
-40 27 -7 10 -3 64 7 100 4 15 -2 24 -25 37 -30 17 -31 20 -21 78 1 2 6 -1 12
-7 16 -16 54 6 67 39 10 28 35 37 48 17z m4084 7 c0 -3 -4 -8 -10 -11 -5 -3
-10 -1 -10 4 0 6 5 11 10 11 6 0 10 -2 10 -4z m-3936 -21 c24 -18 29 -44 10
-52 -21 -8 -41 13 -41 42 0 29 4 30 31 10z m552 -19 c4 -17 15 -27 35 -31 40
-9 38 -38 -5 -59 -19 -9 -39 -16 -44 -16 -17 0 -25 20 -13 33 12 16 9 46 -8
56 -15 9 -4 41 15 41 7 0 16 -11 20 -24z m3374 -1 c0 -8 -2 -15 -4 -15 -2 0
-6 7 -10 15 -3 8 -1 15 4 15 6 0 10 -7 10 -15z m33 0 c-3 -9 -8 -14 -10 -11
-3 3 -2 9 2 15 9 16 15 13 8 -4z m2177 -25 c0 -16 -7 -20 -30 -20 -35 0 -40
17 -7 30 33 13 37 12 37 -10z m-2370 1 c0 -5 3 -18 6 -28 5 -16 4 -16 -10 1
-18 23 -20 36 -6 36 6 0 10 -4 10 -9z m1330 -10 c0 -10 -25 -21 -48 -21 -15 1
-14 3 2 15 22 17 46 20 46 6z m460 -1 c0 -5 -4 -10 -10 -10 -5 0 -10 5 -10 10
0 6 5 10 10 10 6 0 10 -4 10 -10z m940 0 c0 -5 -5 -10 -11 -10 -5 0 -7 5 -4
10 3 6 8 10 11 10 2 0 4 -4 4 -10z m-6301 -24 c18 -21 25 -116 9 -116 -24 0
-36 15 -52 60 -21 61 -22 60 25 69 4 0 12 -5 18 -13z m3726 -6 c3 -6 -1 -7 -9
-4 -18 7 -21 14 -7 14 6 0 13 -4 16 -10z m-180 -30 c-6 -9 -9 -9 -16 1 -10 17
0 34 13 21 6 -6 7 -16 3 -22z m360 20 c3 -5 1 -10 -5 -10 -6 0 -8 -4 -5 -10 9
-14 -7 -12 -28 4 -14 11 -15 15 -5 19 21 9 36 8 43 -3z m-124 -47 c-12 -20
-14 -14 -5 12 4 9 9 14 11 11 3 -2 0 -13 -6 -23z m64 7 c-3 -5 -10 -10 -16
-10 -5 0 -9 5 -9 10 0 6 7 10 16 10 8 0 12 -4 9 -10z m1945 -26 c0 -8 -5 -12
-10 -9 -6 4 -8 11 -5 16 9 14 15 11 15 -7z m832 -4 c-41 -25 -45 -25 -32 0 7
12 21 20 38 20 l27 0 -33 -20z m-3009 -4 c4 -10 1 -13 -9 -9 -7 3 -14 9 -14
14 0 14 17 10 23 -5z m900 -11 c-6 -16 -16 -19 -26 -8 -9 8 13 34 24 28 4 -3
6 -12 2 -20z m1955 13 c-6 -29 -38 -31 -38 -2 0 8 9 14 20 14 11 0 19 -6 18
-12z m-709 -7 c8 -5 9 -11 3 -15 -6 -3 -13 -2 -17 4 -4 6 -11 8 -16 5 -5 -4
-9 -1 -9 4 0 13 20 14 39 2z m-5980 -14 c13 -16 5 -27 -20 -27 -21 0 -33 15
-24 30 9 14 31 12 44 -3z m4101 -2 c0 -13 -4 -14 -20 -5 -11 6 -20 13 -20 15
0 3 9 5 20 5 11 0 20 -7 20 -15z m2555 -25 c-13 -5 -21 -3 -23 7 -3 9 -11 12
-25 7 -19 -6 -20 -5 -8 9 12 15 15 15 44 0 29 -15 30 -17 12 -23z m110 30 c-3
-5 -10 -10 -16 -10 -5 0 -9 5 -9 10 0 6 7 10 16 10 8 0 12 -4 9 -10z m-2710
-10 c3 -5 2 -10 -4 -10 -5 0 -13 5 -16 10 -3 6 -2 10 4 10 5 0 13 -4 16 -10z
m1810 -20 c0 -22 -32 -37 -47 -22 -11 11 -9 16 7 28 22 16 40 14 40 -6z
m-2202 -7 c-7 -2 -13 -12 -13 -21 0 -12 -3 -13 -11 -5 -14 14 -3 33 19 32 11
0 12 -3 5 -6z m55 -21 c-2 -8 -10 -18 -18 -20 -13 -5 -13 -3 -1 11 15 19 1 23
-17 5 -13 -13 -15 -8 -6 15 7 20 46 9 42 -11z m2983 13 c-1 -5 -11 -11 -23
-12 -13 -1 -46 -8 -75 -16 -40 -12 -53 -12 -56 -3 -4 9 9 13 40 15 25 0 55 8
66 16 24 17 48 16 48 0z m-2481 -5 c-13 -9 -7 -14 13 -11 16 2 6 -18 -18 -33
-32 -21 -32 -21 -27 19 3 28 9 35 26 35 17 0 18 -2 6 -10z m87 -45 c-7 -7 -16
-10 -21 -5 -12 12 2 30 19 24 11 -5 12 -9 2 -19z m-4097 -14 c38 -25 69 -64
70 -88 0 -13 6 -23 13 -24 10 0 10 -2 0 -6 -7 -2 -13 -12 -13 -20 0 -10 -6
-14 -20 -10 -11 3 -20 1 -20 -3 0 -13 -73 0 -89 15 -10 10 -11 20 -3 43 8 24
7 32 -4 36 -17 7 -18 39 -2 65 12 20 26 18 68 -8z m270 14 c0 -9 -6 -12 -16
-8 -13 5 -13 7 -2 14 17 11 18 11 18 -6z m3481 -10 c-2 -17 -34 -11 -37 7 -1
13 3 15 18 9 11 -4 19 -11 19 -16z m2569 15 c0 -5 -5 -10 -11 -10 -5 0 -7 5
-4 10 3 6 8 10 11 10 2 0 4 -4 4 -10z m266 -9 c-3 -5 -30 -25 -58 -44 -29 -19
-70 -49 -92 -66 -46 -37 -78 -43 -46 -9 11 12 18 23 16 25 -8 8 -57 -18 -51
-27 3 -6 -5 -10 -19 -10 -14 0 -28 -4 -31 -10 -3 -5 3 -10 14 -10 10 0 18 -6
17 -12 -3 -25 -18 -39 -38 -36 -15 2 -23 -6 -32 -32 -7 -19 -17 -44 -24 -55
-10 -17 -11 -12 -8 30 3 28 5 61 6 75 1 23 2 23 10 5 7 -17 9 -17 9 -2 1 9 8
17 16 17 14 0 19 12 16 33 0 4 10 7 24 7 14 0 28 6 31 13 3 8 18 24 34 35 26
20 30 20 44 6 9 -8 16 -11 16 -6 0 5 10 12 22 15 12 4 19 9 16 12 -3 4 -16 2
-27 -5 -12 -6 -21 -7 -21 -1 0 12 45 22 66 14 13 -5 15 -3 9 8 -4 8 -5 11 -1
7 5 -4 25 2 44 13 41 22 45 23 38 10z m-3201 -11 c-3 -6 1 -17 9 -26 9 -8 16
-23 16 -31 0 -14 -3 -14 -20 2 -20 18 -26 46 -13 58 10 10 15 8 8 -3z m95 0
c0 -5 -6 -10 -14 -10 -8 0 -18 5 -21 10 -3 6 3 10 14 10 12 0 21 -4 21 -10z
m368 -8 c3 -9 -3 -13 -19 -10 -12 1 -24 9 -27 16 -3 9 3 13 19 10 12 -1 24 -9
27 -16z m2442 -7 c-7 -9 -15 -13 -17 -11 -7 7 7 26 19 26 6 0 6 -6 -2 -15z
m134 -4 c-17 -10 -46 -21 -65 -25 -19 -3 -27 -3 -19 1 8 3 17 9 20 14 5 7 63
26 85 28 6 1 -4 -8 -21 -18z m-2804 -11 c0 -5 -6 -10 -14 -10 -8 0 -18 5 -21
10 -3 6 3 10 14 10 12 0 21 -4 21 -10z m278 3 c0 -5 2 -16 7 -26 4 -10 5 -21
1 -24 -7 -7 -25 39 -19 50 2 4 6 7 9 7 2 0 3 -3 2 -7z m1792 -9 c0 -17 -22
-14 -28 4 -2 7 3 12 12 12 9 0 16 -7 16 -16z m-5270 -6 c1 -7 15 -22 33 -33
19 -12 33 -30 35 -45 2 -14 8 -29 13 -34 5 -6 9 -18 9 -28 0 -28 -37 -22 -52
9 -8 17 -24 29 -43 33 -50 11 -115 49 -109 64 3 7 24 16 47 19 23 3 43 11 45
16 5 15 22 14 22 -1z m-835 -8 c3 -5 1 -10 -4 -10 -6 0 -11 5 -11 10 0 6 2 10
4 10 3 0 8 -4 11 -10z m4425 0 c0 -5 -2 -10 -4 -10 -3 0 -8 5 -11 10 -3 6 -1
10 4 10 6 0 11 -4 11 -10z m2311 -23 c-13 -13 -26 -3 -16 12 3 6 11 8 17 5 6
-4 6 -10 -1 -17z m-2540 -12 c7 5 10 3 7 -6 -8 -25 -43 -16 -46 11 -2 24 -2
24 12 6 8 -10 20 -15 27 -11z m2813 1 c-3 -9 -10 -16 -15 -16 -5 0 -4 9 3 20
14 22 21 20 12 -4z m-6981 -17 c8 -29 -2 -51 -22 -47 -10 2 -17 15 -19 36 -3
26 0 32 16 32 12 0 22 -9 25 -21z m4248 -6 c-8 -15 -10 -15 -11 -2 0 17 10 32
18 25 2 -3 -1 -13 -7 -23z m-3671 -23 c58 -60 55 -68 -29 -85 -20 -4 -42 -2
-56 5 -28 15 -30 56 -4 63 11 3 19 14 19 24 0 45 21 43 70 -7z m3372 18 c-7
-7 -12 -8 -12 -2 0 6 3 14 7 17 3 4 9 5 12 2 2 -3 -1 -11 -7 -17z m448 -42 c0
-3 -4 -8 -10 -11 -5 -3 -10 -1 -10 4 0 6 5 11 10 11 6 0 10 -2 10 -4z m893
-36 c4 0 7 -8 7 -18 0 -21 -82 -67 -105 -59 -19 8 -20 61 0 80 11 12 23 13 52
6 21 -5 41 -9 46 -9z m-732 -17 c7 -20 6 -30 -4 -40 -11 -11 -16 -10 -32 7
-15 17 -16 22 -4 36 12 15 11 16 -11 9 -14 -4 -29 -11 -34 -16 -20 -18 -29 -8
-11 11 11 12 31 20 52 20 27 0 35 -5 44 -27z m-841 -23 c0 -41 -15 -45 -30 -9
-11 25 -11 32 0 39 20 13 30 3 30 -30z m151 -26 c12 -14 11 -16 -5 -13 -11 2
-21 10 -24 17 -5 17 13 15 29 -4z m429 -8 c0 -2 -7 -9 -15 -16 -13 -11 -14
-10 -9 4 5 14 24 23 24 12z m-595 -44 c-11 -11 -34 8 -28 24 6 15 7 15 20 -1
7 -10 11 -21 8 -23z m89 29 c3 -4 -6 -6 -19 -3 -14 2 -25 6 -25 8 0 8 39 4 44
-5z m760 -28 c-10 -7 -25 -13 -33 -12 -10 0 -7 4 7 9 12 5 25 17 29 27 5 13 8
14 11 3 3 -7 -3 -19 -14 -27z m1614 25 c9 -9 15 -9 24 0 17 17 49 15 76 -4
l22 -15 -20 -26 c-11 -14 -20 -32 -20 -39 0 -8 -8 -14 -19 -14 -27 0 -71 38
-71 62 0 14 -5 18 -15 14 -10 -4 -15 1 -15 14 0 22 20 26 38 8z m-4252 -35
c-3 -8 -6 -17 -6 -19 0 -8 -29 -4 -34 5 -11 18 5 39 25 34 13 -4 18 -11 15
-20z m2454 12 c-7 -8 -17 -12 -22 -9 -6 4 -5 10 3 15 22 14 33 10 19 -6z
m2210 5 c0 -5 -4 -10 -10 -10 -5 0 -10 5 -10 10 0 6 5 10 10 10 6 0 10 -4 10
-10z m-2670 -53 c0 -5 -9 -2 -20 8 -15 14 -20 15 -20 4 -1 -10 -5 -8 -15 5
-24 32 -17 37 20 15 19 -12 35 -26 35 -32z m-130 23 c0 -11 -4 -20 -10 -20 -5
0 -10 9 -10 20 0 11 5 20 10 20 6 0 10 -9 10 -20z m1680 5 c0 -9 -6 -12 -15
-9 -8 4 -12 10 -9 15 8 14 24 10 24 -6z m-1430 -9 c0 -3 -4 -8 -10 -11 -5 -3
-10 -1 -10 4 0 6 5 11 10 11 6 0 10 -2 10 -4z m-3760 -28 c55 -38 52 -52 -11
-44 -99 11 -133 19 -146 32 -38 37 103 48 157 12z m5398 -4 c4 -27 -24 -39
-36 -16 -5 9 -7 23 -5 30 8 20 38 9 41 -14z m-4968 -10 c0 -21 -4 -25 -22 -22
-15 2 -24 11 -26 26 -3 18 1 22 22 22 21 0 26 -5 26 -26z m649 17 c12 -8 12
-12 2 -25 -13 -15 -51 -23 -51 -10 0 11 21 44 28 44 4 0 13 -4 21 -9z m-811
-13 c16 -16 -14 -37 -55 -38 -36 0 -38 2 -23 31 12 21 59 26 78 7z m1102 -13
c12 -31 3 -55 -19 -55 -25 0 -41 20 -41 52 0 23 4 28 25 28 18 0 28 -7 35 -25z
m2080 15 c0 -5 -5 -10 -11 -10 -5 0 -7 5 -4 10 3 6 8 10 11 10 2 0 4 -4 4 -10z
m-3630 -4 c0 -20 -16 -36 -36 -36 -25 0 -34 24 -11 33 15 7 47 8 47 3z m3651
-19 c-10 -9 -11 -8 -5 6 3 10 9 15 12 12 3 -3 0 -11 -7 -18z m306 -9 c-3 -8
-6 -5 -6 6 -1 11 2 17 5 13 3 -3 4 -12 1 -19z m403 13 c0 -12 -29 -35 -36 -28
-11 10 5 37 21 37 8 0 15 -4 15 -9z m-470 -21 c0 -19 -18 -19 -23 -1 -3 14 -1
18 9 14 8 -3 14 -9 14 -13z m694 -11 c15 -31 15 -31 -9 -25 -19 5 -24 2 -27
-16 -2 -15 -11 -24 -25 -26 -25 -4 -25 2 4 66 18 40 37 41 57 1z m1426 11 c0
-5 6 -10 13 -10 17 0 35 -38 32 -69 -1 -19 -7 -25 -31 -26 -30 -1 -55 20 -47
40 2 7 -1 23 -6 37 -5 14 -7 29 -4 32 10 10 43 7 43 -4z m-1205 -10 c11 -17
-5 -32 -21 -19 -8 6 -14 15 -14 20 0 12 27 11 35 -1z m-4189 -46 c19 -20 34
-42 34 -49 0 -13 -43 -25 -90 -25 -32 0 -46 23 -24 40 8 7 14 22 14 35 0 46
21 46 66 -1z m3359 6 c3 -6 -3 -10 -14 -10 -12 0 -21 7 -21 16 0 9 -5 12 -12
8 -7 -4 -8 -3 -4 4 8 13 39 1 51 -18z m259 15 c3 -9 0 -15 -8 -15 -7 0 -13 7
-13 15 0 8 4 15 8 15 4 0 9 -7 13 -15z m-439 -22 c-11 -3 -25 -10 -32 -15 -7
-5 -17 -7 -23 -3 -19 12 1 25 38 24 22 -1 29 -3 17 -6z m305 -32 c0 -5 -6 -14
-14 -20 -16 -13 -32 2 -21 19 8 12 35 13 35 1z m100 0 c0 -6 -4 -13 -10 -16
-5 -3 -10 1 -10 9 0 9 5 16 10 16 6 0 10 -4 10 -9z m65 -31 c-3 -6 -1 -10 4
-10 6 0 11 -4 11 -10 0 -21 -30 -9 -36 14 -8 32 5 55 18 32 5 -9 6 -21 3 -26z
m149 29 c-4 -8 0 -9 15 -4 16 5 20 3 15 -9 -3 -9 -10 -16 -14 -16 -12 0 -30
26 -23 33 10 11 15 8 7 -4z m-674 -24 c0 -8 -4 -15 -8 -15 -5 0 -9 7 -9 15 0
8 4 15 9 15 4 0 8 -7 8 -15z m880 -40 c-11 -13 -50 -9 -50 5 0 5 12 18 28 30
l27 22 3 -22 c2 -11 -1 -27 -8 -35z m-962 33 c19 -19 15 -50 -5 -46 -10 2 -17
10 -15 16 1 7 -5 15 -13 18 -17 7 -11 24 9 24 6 0 17 -5 24 -12z m-3639 -27
c8 -14 27 -20 74 -25 36 -4 76 -16 93 -27 16 -10 35 -19 42 -19 7 0 30 -11 51
-25 34 -21 43 -23 70 -12 17 6 31 15 31 19 0 4 5 8 10 8 6 0 10 -5 10 -12 0
-6 10 -22 21 -35 18 -18 20 -25 10 -37 -7 -8 -9 -25 -6 -39 6 -22 4 -25 -17
-23 -19 3 -87 44 -164 100 -8 7 -25 4 -49 -10 l-37 -19 -23 29 c-20 26 -34 31
-101 40 -66 9 -80 15 -97 38 -20 27 -20 28 -2 48 23 26 71 26 84 1z m4415 5
c-3 -8 -12 -12 -20 -9 -17 6 -9 23 11 23 8 0 12 -6 9 -14z m1616 -17 c-12 -21
-40 -26 -40 -8 0 15 32 39 42 33 5 -3 3 -14 -2 -25z m-2320 0 c0 -6 -4 -7 -10
-4 -5 3 -10 11 -10 16 0 6 5 7 10 4 6 -3 10 -11 10 -16z m240 -4 c17 -21 -9
-44 -49 -43 -24 1 -31 5 -29 17 2 9 9 16 15 16 7 0 18 6 25 13 16 16 23 15 38
-3z m-366 -31 c5 -13 8 -14 20 -1 19 18 59 11 82 -14 17 -18 16 -20 -1 -33
-13 -9 -28 -11 -47 -5 -38 10 -90 48 -83 60 9 14 22 11 29 -7z m566 -35 c0
-12 -8 -16 -25 -15 -29 1 -34 30 -8 45 19 10 33 -2 33 -30z m144 26 c-4 -8
-10 -15 -15 -15 -5 0 -9 7 -9 15 0 8 7 15 15 15 9 0 12 -6 9 -15z m1211 -18
c67 -36 79 -58 40 -75 -32 -15 -68 -2 -90 32 -17 25 -27 76 -16 76 3 0 33 -15
66 -33z m-1435 10 c14 -11 16 -22 12 -51 -3 -15 -42 31 -42 49 0 18 9 19 30 2z
m310 9 c0 -2 -7 -6 -15 -10 -8 -3 -15 -1 -15 4 0 6 7 10 15 10 8 0 15 -2 15
-4z m-119 -53 c-8 -15 -10 -15 -11 -2 0 17 10 32 18 25 2 -3 -1 -13 -7 -23z
m189 1 c0 -7 -27 -34 -33 -34 -3 0 -7 7 -10 14 -4 10 -1 13 9 9 7 -3 14 0 14
6 0 6 5 11 10 11 6 0 10 -3 10 -6z m117 -14 c-48 -26 -61 -26 -22 0 17 11 37
20 45 20 8 0 -2 -9 -23 -20z m-3137 0 c19 -12 13 -16 -32 -24 -36 -7 -55 4
-43 24 8 13 55 13 75 0z m2368 -4 c8 -9 -10 -26 -27 -26 -18 0 -41 18 -41 33
0 9 58 2 68 -7z m553 4 c16 -9 17 -14 6 -31 -9 -15 -19 -18 -42 -13 -38 8 -39
8 -25 33 12 23 31 26 61 11z m1459 -31 c0 -12 -7 -19 -19 -19 -23 0 -32 19
-19 43 7 15 12 16 24 6 8 -6 14 -20 14 -30z m-5270 -11 c0 -14 -43 -58 -57
-58 -19 0 -16 30 8 69 19 32 21 32 34 15 8 -11 15 -22 15 -26z m3460 32 c0 -5
-5 -10 -11 -10 -5 0 -7 5 -4 10 3 6 8 10 11 10 2 0 4 -4 4 -10z m625 -8 c33
-23 -11 -54 -45 -32 -13 8 -12 11 5 24 23 18 26 18 40 8z m-1048 -19 c-4 -3 1
-16 10 -27 17 -20 17 -20 -2 -6 -11 8 -22 15 -24 17 -5 3 9 23 16 23 4 0 3 -3
0 -7z m140 -33 c0 -46 -15 -48 -35 -7 -15 31 -9 47 17 47 14 0 18 -8 18 -40z
m2378 6 c10 -20 14 -44 10 -56 -9 -29 -66 -55 -100 -46 -23 6 -26 11 -21 31 4
15 2 25 -4 25 -6 0 -5 9 2 23 25 43 41 57 69 57 22 0 32 -7 44 -34z m128 -33
c16 -13 37 -23 48 -23 10 0 19 -4 19 -9 0 -10 -47 -61 -56 -61 -4 0 -18 -10
-30 -21 -32 -30 -57 -19 -51 24 2 19 -1 41 -9 52 -19 25 -18 52 3 63 20 12 39
6 76 -25z m-1588 -13 c-3 -5 -14 -10 -23 -10 -15 0 -15 2 -2 10 20 13 33 13
25 0z m-1123 -32 c-7 -7 -12 -8 -12 -2 0 6 3 14 7 17 3 4 9 5 12 2 2 -3 -1
-11 -7 -17z m1071 15 c-7 -2 -21 -2 -30 0 -10 3 -4 5 12 5 17 0 24 -2 18 -5z
m-1030 -23 c3 -11 1 -20 -4 -20 -5 0 -9 9 -9 20 0 11 2 20 4 20 2 0 6 -9 9
-20z m3286 -6 c2 -2 -8 -4 -22 -4 -18 0 -27 5 -27 15 0 13 4 14 23 4 12 -6 24
-13 26 -15z m-2799 6 c8 -5 12 -12 9 -15 -8 -8 -39 5 -39 16 0 11 11 11 30 -1z
m91 -49 c-12 -29 -41 -50 -41 -31 0 6 5 10 11 10 5 0 7 5 4 10 -3 6 -1 10 5
10 6 0 10 6 9 13 -4 30 1 41 12 30 9 -9 9 -19 0 -42z m-431 16 c0 -16 -47 -40
-61 -32 -15 10 -10 25 6 19 8 -4 15 -1 15 4 0 6 8 13 18 15 9 3 18 5 20 6 1 0
2 -5 2 -12z m620 -1 c0 -8 -5 -18 -10 -21 -17 -11 -40 3 -34 20 8 19 44 20 44
1z m86 4 c8 0 14 -5 14 -11 0 -15 -53 -6 -58 10 -3 10 0 12 12 8 10 -4 24 -7
32 -7z m-4012 -22 c8 -13 7 -21 -1 -29 -23 -23 -74 15 -57 42 9 15 45 6 58
-13z m3631 12 c3 -5 -3 -10 -14 -10 -12 0 -21 5 -21 10 0 6 6 10 14 10 8 0 18
-4 21 -10z m-427 -27 c-2 -16 -8 -27 -15 -26 -7 2 -10 -4 -7 -12 4 -11 2 -13
-9 -9 -29 11 -12 74 20 74 10 0 13 -9 11 -27z m2062 13 c0 -8 -17 -21 -37 -29
-34 -14 -40 -14 -53 -1 -13 14 -13 17 4 30 26 18 86 19 86 0z m-1764 -44 c-7
-7 -46 9 -46 18 0 5 11 4 25 -2 14 -6 23 -13 21 -16z m1944 13 c7 -9 20 -13
29 -10 10 3 26 -1 36 -9 17 -12 17 -16 6 -30 -18 -22 -86 -16 -104 8 -7 10
-20 17 -28 16 -45 -7 -52 19 -8 31 40 11 56 10 69 -6z m424 6 c3 -4 -1 -17 -9
-27 -16 -23 -40 -7 -29 19 7 18 29 23 38 8z m-136 -22 c3 -19 -27 -34 -40 -21
-13 13 2 43 21 40 9 -2 17 -10 19 -19z m-616 -4 c0 -5 -5 -11 -11 -13 -6 -2
-11 4 -11 13 0 9 5 15 11 13 6 -2 11 -8 11 -13z m-832 -5 c0 -5 -5 -10 -11
-10 -5 0 -7 5 -4 10 3 6 8 10 11 10 2 0 4 -4 4 -10z m-1140 -10 c0 -5 -2 -10
-4 -10 -3 0 -8 5 -11 10 -3 6 -1 10 4 10 6 0 11 -4 11 -10z m917 -37 c-3 -10
-5 -4 -5 12 0 17 2 24 5 18 2 -7 2 -21 0 -30z m138 -19 c18 -16 26 -19 35 -10
10 8 10 6 1 -11 -20 -39 -12 -39 14 0 14 20 23 41 20 46 -8 13 13 24 32 17 14
-6 14 -9 -3 -28 -19 -21 -19 -21 2 -8 12 7 29 10 39 6 17 -6 17 -7 -1 -21 -10
-8 -25 -15 -32 -15 -8 0 -26 -9 -40 -21 -17 -13 -34 -18 -49 -14 -19 4 -23 1
-23 -20 0 -30 -9 -31 -38 -5 -17 16 -20 27 -15 53 3 17 10 36 14 42 5 5 10 18
10 30 1 20 1 20 6 0 3 -11 16 -30 28 -41z m1067 41 c0 -5 -5 -11 -11 -13 -6
-2 -11 4 -11 13 0 9 5 15 11 13 6 -2 11 -8 11 -13z m548 -1 c0 -14 -3 -14 -15
-4 -8 7 -15 14 -15 16 0 2 7 4 15 4 8 0 15 -7 15 -16z m-2650 -14 c0 -5 -7 -7
-15 -4 -8 4 -15 8 -15 10 0 2 7 4 15 4 8 0 15 -4 15 -10z m204 -5 c3 -8 3 -15
0 -15 -3 0 -12 7 -20 15 -13 13 -13 15 -1 15 8 0 17 -7 21 -15z m86 -35 c6 0
9 -22 9 -50 -1 -27 -6 -50 -12 -50 -6 0 -7 3 -4 7 4 3 -8 17 -26 30 -17 13
-32 28 -31 33 1 6 2 17 3 25 0 8 6 15 12 15 5 0 8 -4 4 -9 -3 -5 -1 -12 4 -15
5 -3 12 11 17 32 7 34 8 35 12 10 2 -16 7 -28 12 -28z m-1300 24 c0 -8 -6 -11
-15 -8 -11 5 -13 2 -9 -10 3 -9 1 -16 -4 -16 -17 0 -25 20 -13 34 14 17 41 16
41 0z m1563 9 c-10 -3 -10 -10 -2 -25 6 -11 8 -26 5 -33 -5 -15 17 -39 27 -28
4 3 7 -3 7 -15 0 -30 -17 -36 -32 -12 -16 25 -25 25 -33 0 -4 -12 -16 -20 -28
-21 l-22 0 23 -11 c13 -7 22 -20 22 -35 0 -13 7 -26 15 -29 19 -8 20 -24 1
-24 -18 0 -47 40 -39 53 3 6 1 7 -5 3 -7 -4 -14 3 -18 18 -6 26 13 56 37 56 8
0 7 6 -4 18 -18 19 -23 72 -8 72 5 0 12 -10 16 -22 7 -22 7 -22 12 -3 8 38 12
45 25 44 10 0 10 -2 1 -6z m2737 -17 c0 -8 -92 -58 -97 -53 -3 3 17 17 44 31
53 28 53 28 53 22z m-3110 -27 c0 -4 -9 -7 -20 -6 -11 1 -20 7 -20 13 0 7 8
10 20 7 11 -3 20 -9 20 -14z m775 11 c-3 -5 -13 -10 -21 -10 -8 0 -14 5 -14
10 0 6 9 10 21 10 11 0 17 -4 14 -10z m734 -6 c8 -7 -12 -24 -29 -24 -22 0
-34 15 -25 30 6 9 41 5 54 -6z m-869 -6 c0 -4 -9 -8 -20 -8 -11 0 -20 4 -20 8
0 4 9 8 20 8 11 0 20 -4 20 -8z m411 -11 c-10 -9 -11 -8 -5 6 3 10 9 15 12 12
3 -3 0 -11 -7 -18z m-591 -7 c4 0 11 -7 14 -16 5 -14 4 -15 -8 -5 -9 8 -15 8
-18 1 -1 -5 -9 -1 -17 11 -11 19 -11 21 4 15 9 -3 20 -6 25 -6z m130 -4 c0 -2
-7 -7 -16 -10 -8 -3 -12 -2 -9 4 6 10 25 14 25 6z m382 -8 c-12 -12 -42 -20
-42 -12 0 4 38 22 50 23 2 1 -1 -4 -8 -11z m-4063 -37 c10 -7 11 -13 2 -30
-13 -23 -13 -23 -35 -15 -19 7 -21 40 -3 47 18 8 21 8 36 -2z m3054 -5 c9 -24
-18 -39 -34 -19 -10 11 -10 14 -1 9 7 -4 15 -1 18 8 8 20 10 20 17 2z m315
-26 c1 -31 -16 -55 -47 -65 -21 -6 -22 -5 -16 17 10 31 12 33 28 20 15 -13 27
-6 27 14 0 7 -8 10 -19 7 -15 -4 -19 -1 -15 14 8 29 41 24 42 -7z m-388 6 c0
-9 -9 -14 -20 -13 -20 1 -25 9 -13 20 12 12 33 7 33 -7z m810 -46 c-13 -25
-34 -36 -87 -44 -32 -4 -43 -3 -43 6 0 25 16 37 50 41 48 5 70 16 70 36 1 14
2 14 11 -1 7 -12 6 -24 -1 -38z m100 23 c0 -13 -3 -13 -15 -3 -8 7 -12 16 -9
21 8 13 24 1 24 -18z m-706 -8 c-14 -22 -23 -25 -73 -23 -37 1 -44 2 -21 5 43
5 90 22 90 34 0 5 5 9 10 9 6 0 3 -11 -6 -25z m83 -2 c5 -13 -25 -26 -38 -17
-6 3 -5 11 2 20 13 16 31 14 36 -3z m-307 -12 c0 -11 -5 -23 -12 -27 -8 -5 -9
0 -6 14 4 12 2 20 -3 16 -5 -3 -9 0 -9 5 0 6 7 11 15 11 8 0 15 -9 15 -19z
m1155 9 c3 -5 -1 -10 -9 -10 -9 0 -16 5 -16 10 0 6 4 10 9 10 6 0 13 -4 16
-10z m1190 -19 c18 -36 11 -59 -23 -68 -29 -7 -52 16 -52 52 0 50 51 61 75 16z
m-1736 12 c-2 -25 -15 -41 -27 -34 -16 9 -5 41 14 41 8 0 14 -3 13 -7z m1169
-21 c4 -25 -6 -28 -33 -9 -10 8 -15 19 -11 26 12 19 41 8 44 -17z m-778 -17
c0 -14 -7 -25 -19 -28 -17 -4 -19 -2 -10 21 8 21 7 23 -4 14 -17 -15 -31 -3
-17 14 17 19 50 5 50 -21z m-315 15 c4 -6 -9 -10 -32 -10 -28 0 -34 3 -23 10
20 13 47 13 55 0z m423 -10 c-2 -8 -16 -17 -33 -18 -24 -3 -27 -1 -17 11 6 7
9 16 6 19 -3 3 6 5 21 4 17 0 25 -6 23 -16z m82 10 c0 -5 -2 -10 -4 -10 -3 0
-8 5 -11 10 -3 6 -1 10 4 10 6 0 11 -4 11 -10z m-1010 -19 c0 -4 11 -6 24 -4
30 6 43 -13 23 -35 -23 -27 -28 -52 -12 -52 8 0 15 7 15 16 0 14 3 14 15 4 12
-10 15 -10 15 2 0 8 6 22 13 32 11 16 13 15 15 -7 2 -34 -25 -54 -82 -60 -42
-4 -49 -2 -53 14 -3 10 -8 19 -12 19 -13 0 -6 55 9 67 18 15 30 16 30 4z
m-176 -49 c-1 -2 -12 -1 -24 3 -12 4 -19 9 -16 12 3 4 0 13 -7 22 -6 9 2 4 19
-9 17 -14 30 -27 28 -28z m1156 33 c0 -8 -4 -15 -8 -15 -5 0 -9 7 -9 15 0 8 4
15 9 15 4 0 8 -7 8 -15z m-1071 -11 c25 -12 31 -21 29 -43 -2 -24 -4 -26 -24
-17 -12 6 -20 14 -18 18 3 5 -1 8 -8 8 -9 0 -9 3 2 10 8 5 10 10 4 10 -7 0
-14 7 -18 15 -7 19 -6 19 33 -1z m684 -16 c11 -15 17 -32 13 -40 -25 -49 -34
-59 -41 -47 -5 7 -1 17 10 26 11 7 14 13 7 13 -15 0 -41 51 -35 68 7 18 23 11
46 -20z m106 13 c8 -5 10 -14 6 -21 -5 -7 -4 -11 1 -8 5 3 14 0 20 -6 9 -10 3
-13 -27 -14 -37 -2 -39 0 -39 28 0 30 13 37 39 21z m356 -9 c-3 -3 -11 0 -18
7 -9 10 -8 11 6 5 10 -3 15 -9 12 -12z m1792 12 c-3 -3 -12 -4 -19 -1 -8 3 -5
6 6 6 11 1 17 -2 13 -5z m-2588 -36 c-13 -4 -35 -24 -49 -44 -23 -34 -25 -35
-33 -16 -7 15 -4 27 8 44 l17 23 -7 -22 c-4 -14 -2 -23 4 -23 10 0 13 11 10
38 0 10 43 20 60 13 11 -3 8 -7 -10 -13z m1135 -3 c-4 -8 -10 -15 -15 -15 -5
0 -9 7 -9 15 0 8 7 15 15 15 9 0 12 -6 9 -15z m-1589 -5 c-28 -12 -37 -12 -30
0 3 6 16 10 28 9 21 0 21 -1 2 -9z m2481 -1 c7 -12 -12 -29 -33 -29 -7 0 -13
9 -13 20 0 22 34 28 46 9z m-592 -8 c10 -15 -4 -40 -26 -47 -25 -8 -40 13 -27
38 10 19 44 25 53 9z m-561 -43 c12 -6 16 -15 11 -26 -3 -9 -9 -27 -11 -39 -4
-18 -12 -23 -37 -23 l-31 0 30 25 c37 30 20 33 -62 9 -56 -16 -58 -19 -39 -64
4 -9 0 -24 -8 -35 -15 -20 -26 -18 -30 7 -1 7 -5 18 -9 25 -13 20 25 80 58 89
17 5 34 19 40 31 7 18 15 21 40 16 16 -3 38 -10 48 -15z m-1079 -3 c-6 -16
-22 -19 -48 -9 -24 9 -9 24 24 24 22 0 28 -4 24 -15z m1575 -1 c3 -2 -5 -17
-16 -32 -42 -56 -54 -90 -41 -111 11 -18 14 -18 55 16 25 21 49 33 58 29 18
-7 20 -57 3 -75 -11 -10 -10 -14 5 -22 9 -6 17 -17 17 -24 0 -8 6 -15 13 -15
22 0 103 28 145 49 62 32 82 27 37 -9 -21 -16 -41 -30 -46 -30 -4 0 -21 -11
-36 -25 -46 -41 -52 -45 -61 -45 -4 0 -32 -23 -62 -52 -30 -28 -58 -52 -62
-52 -4 -1 -13 -7 -20 -14 -10 -10 -7 -17 16 -37 l29 -25 -25 0 c-14 0 -28 7
-32 15 -7 19 -22 19 -29 1 -3 -8 1 -13 11 -12 9 0 16 -4 15 -11 -2 -7 8 -11
25 -10 30 2 40 -25 11 -31 -21 -4 -52 26 -42 41 4 6 0 8 -10 4 -9 -3 -19 -2
-22 4 -4 5 -13 3 -21 -6 -17 -16 -34 -12 -34 9 0 8 -7 19 -15 26 -8 7 -13 15
-11 19 3 4 1 13 -5 21 -7 13 -9 13 -10 0 -1 -8 -1 -19 0 -23 1 -5 -4 -5 -10
-1 -7 4 -30 8 -51 9 -30 2 -38 -1 -34 -11 3 -8 1 -14 -4 -14 -6 0 -10 5 -10
12 0 6 -8 3 -19 -8 -10 -10 -17 -22 -15 -26 3 -4 0 -9 -6 -13 -7 -4 -7 -12 0
-26 8 -15 7 -19 -4 -19 -7 0 -17 8 -21 18 -11 25 -12 102 -2 102 5 0 7 -18 5
-40 -2 -24 0 -39 7 -37 5 2 8 20 7 39 -3 27 1 39 15 46 16 9 15 11 -10 16 -50
11 -82 15 -69 10 9 -4 7 -11 -9 -25 -14 -12 -17 -19 -9 -19 11 0 11 -3 2 -12
-9 -9 -17 -7 -33 8 -22 19 -22 19 -15 -3 7 -22 4 -23 -38 -23 -32 0 -48 -5
-55 -17 -14 -24 -14 -7 0 18 8 15 19 20 42 17 35 -3 37 1 26 65 l-6 37 47 0
c25 0 72 5 104 11 58 10 116 0 116 -22 0 -4 13 -4 29 1 16 4 32 6 35 2 3 -3 6
2 6 10 0 9 17 23 41 32 24 10 37 21 33 27 -3 6 -8 29 -10 52 -1 24 -9 44 -18
49 -9 5 -16 18 -16 28 0 10 -5 22 -10 25 -6 4 -8 19 -6 33 2 15 5 33 5 40 2
21 63 53 91 46 14 -3 27 -8 29 -10z m-1669 -20 c0 -8 -7 -14 -15 -14 -15 0
-21 21 -9 33 10 9 24 -2 24 -19z m178 5 c10 -16 10 -24 2 -35 -17 -20 -58 -14
-64 10 -11 43 39 63 62 25z m2362 -14 c-7 -8 -20 -15 -29 -16 -9 0 -11 -3 -4
-5 7 -3 21 0 32 6 14 7 21 7 21 1 0 -6 -11 -13 -25 -17 -20 -5 -23 -9 -15 -24
7 -14 6 -21 -3 -27 -7 -4 -18 -19 -24 -33 -9 -19 -12 -21 -12 -7 -1 10 -6 15
-11 12 -6 -4 -8 -10 -5 -14 6 -11 -94 -117 -118 -125 -10 -3 -16 -10 -13 -15
3 -5 -3 -20 -14 -34 -19 -24 -19 -25 0 -42 13 -12 27 -15 49 -10 24 5 32 3 38
-11 11 -29 -11 -49 -56 -50 -33 -2 -48 4 -72 26 -21 19 -38 26 -55 22 -21 -4
-24 -1 -24 26 0 29 29 60 43 46 6 -6 67 67 67 81 0 6 15 18 33 26 31 14 34 21
26 64 -3 14 1 20 13 19 9 -1 14 4 12 10 -5 14 43 39 57 31 5 -4 6 2 2 11 -5
13 -3 16 10 11 9 -3 16 -2 14 3 -2 10 50 48 67 49 5 1 3 -6 -4 -14z m-2112 -7
c-6 -18 -28 -21 -28 -4 0 9 7 16 16 16 9 0 14 -5 12 -12z m-547 -35 c13 -16
12 -17 -3 -4 -17 13 -22 21 -14 21 2 0 10 -8 17 -17z m725 -4 c8 -14 -10 -11
-32 6 -18 13 -18 14 4 8 12 -3 25 -9 28 -14z m2135 11 c13 -8 25 -7 39 0 15 8
26 7 45 -6 14 -9 25 -22 25 -29 0 -7 6 -15 13 -18 24 -9 -5 -21 -46 -20 -34 2
-46 -3 -62 -23 -21 -27 -100 -49 -130 -38 -23 9 -18 49 10 82 14 17 25 34 25
40 0 21 50 28 81 12z m-1851 -10 c0 -5 -5 -10 -11 -10 -5 0 -7 5 -4 10 3 6 8
10 11 10 2 0 4 -4 4 -10z m210 6 c0 -2 -7 -7 -16 -10 -8 -3 -12 -2 -9 4 6 10
25 14 25 6z m1040 -22 c0 -33 -33 -30 -38 4 -3 17 2 22 17 22 16 0 21 -6 21
-26z m-2153 -32 c11 -45 -30 -79 -62 -52 -13 11 -12 18 6 50 24 42 45 43 56 2z
m458 28 c3 -5 -1 -10 -10 -10 -9 0 -13 5 -10 10 3 6 8 10 10 10 2 0 7 -4 10
-10z m202 4 c-3 -3 -12 -4 -19 -1 -8 3 -5 6 6 6 11 1 17 -2 13 -5z m208 -4 c3
-5 1 -10 -4 -10 -6 0 -11 5 -11 10 0 6 2 10 4 10 3 0 8 -4 11 -10z m2063 -12
c-3 -7 -13 -15 -24 -17 -16 -3 -17 -1 -5 13 16 19 34 21 29 4z m-2762 -20 c4
-6 3 -8 -3 -5 -6 4 -13 0 -17 -8 -12 -32 -27 -12 -17 23 3 7 31 0 37 -10z
m334 -15 c0 4 16 -5 36 -18 20 -14 43 -25 50 -25 7 0 18 -9 24 -20 9 -18 8
-20 -15 -20 -30 0 -85 26 -85 40 0 6 -5 10 -11 10 -7 0 -9 -10 -5 -24 7 -27
-2 -59 -14 -51 -4 3 -7 -3 -6 -12 0 -10 -7 -19 -16 -21 -16 -3 -16 -1 -3 25
19 36 19 52 -2 75 -15 17 -15 18 1 18 13 0 15 6 10 28 -7 27 -7 27 15 8 11
-11 21 -16 21 -13z m-625 -3 c25 -4 17 -11 -9 -8 -16 1 -31 9 -34 16 -3 11 0
12 14 4 11 -6 24 -11 29 -12z m-4175 -10 c0 -12 -28 -25 -36 -17 -9 9 6 27 22
27 8 0 14 -5 14 -10z m4640 -30 c-11 -20 -30 -19 -30 1 0 6 4 8 9 5 5 -3 12 4
16 17 3 12 9 17 11 10 3 -7 0 -21 -6 -33z m-72 18 c27 -27 7 -78 -31 -78 -17
0 -17 2 -3 15 10 11 13 26 9 45 -6 31 4 39 25 18z m-353 -18 c3 -6 -1 -7 -9
-4 -18 7 -21 14 -7 14 6 0 13 -4 16 -10z m1370 -8 c0 -18 -20 -15 -23 4 -3 10
1 15 10 12 7 -3 13 -10 13 -16z m1685 -19 c0 -5 -5 -15 -10 -23 -9 -14 -12
-12 -9 6 0 4 -5 11 -13 15 -9 6 -7 9 10 9 12 0 22 -3 22 -7z m-1935 -71 c-9
-9 -24 39 -18 55 6 14 9 11 14 -17 4 -19 6 -36 4 -38z m469 52 c21 -21 20 -34
-2 -34 -25 0 -58 36 -40 43 21 9 26 8 42 -9z m1491 6 c3 -5 -1 -10 -10 -10 -9
0 -13 5 -10 10 3 6 8 10 10 10 2 0 7 -4 10 -10z m-1914 -83 c-16 -16 -24 -3
-27 45 l-4 43 21 -39 c15 -27 18 -41 10 -49z m-526 3 c5 -15 4 -20 -4 -16 -6
4 -11 14 -11 22 0 12 -4 12 -20 4 -22 -12 -27 1 -14 35 6 14 8 14 24 -3 10
-10 21 -29 25 -42z m183 48 c7 -7 12 -20 12 -30 0 -16 -3 -17 -21 -8 -16 9
-26 8 -45 -5 -24 -15 -24 -15 -24 14 0 25 5 30 28 34 15 2 29 5 33 6 3 0 10
-4 17 -11z m2322 2 c0 -5 -2 -10 -4 -10 -3 0 -8 5 -11 10 -3 6 -1 10 4 10 6 0
11 -4 11 -10z m-99 -33 c9 -32 -6 -43 -45 -33 -29 7 -41 42 -18 56 29 17 55 7
63 -23z m-3068 8 c-3 -9 -8 -14 -10 -11 -3 3 -2 9 2 15 9 16 15 13 8 -4z
m1237 11 c0 -3 -4 -8 -10 -11 -5 -3 -10 -1 -10 4 0 6 5 11 10 11 6 0 10 -2 10
-4z m-210 -20 c0 -3 -4 -8 -10 -11 -5 -3 -10 -1 -10 4 0 6 5 11 10 11 6 0 10
-2 10 -4z m-360 -77 c0 -8 -7 -6 -20 6 -11 10 -17 22 -14 26 3 5 0 9 -6 9 -6
0 -8 5 -5 10 7 12 45 -31 45 -51z m40 48 c0 -7 -7 -22 -15 -33 -13 -17 -13
-16 -3 14 13 34 18 40 18 19z m-4230 -12 c6 -8 9 -19 5 -25 -10 -16 -42 -12
-49 6 -12 32 21 47 44 19z m3631 -38 c-10 -26 -31 -37 -31 -17 0 6 5 10 11 10
6 0 9 7 5 15 -3 8 -1 15 4 15 6 0 11 8 11 18 1 14 2 14 6 1 2 -8 -1 -28 -6
-42z m49 43 c0 -5 -5 -10 -11 -10 -5 0 -7 5 -4 10 3 6 8 10 11 10 2 0 4 -4 4
-10z m680 -25 c0 -7 -5 -15 -12 -17 -8 -3 -8 -9 1 -24 10 -15 11 -15 7 -1 -5
14 6 23 17 15 2 -2 11 3 21 11 20 17 32 8 13 -10 -7 -8 -18 -23 -24 -33 -14
-25 -62 -31 -70 -8 -4 9 -12 21 -20 25 -22 13 -15 27 15 28 15 0 21 3 15 6
-21 8 -15 18 12 19 15 1 25 -4 25 -11z m-649 -29 c-6 -14 -15 -26 -21 -26 -14
0 -12 12 6 38 20 29 28 23 15 -12z m359 2 c31 -51 24 -66 -10 -22 -31 42 -36
54 -20 54 6 0 19 -15 30 -32z m400 28 c0 -2 -8 -10 -17 -17 -16 -13 -17 -12
-4 4 13 16 21 21 21 13z m89 -21 c-27 -28 -39 -31 -39 -10 0 15 26 34 49 35 8
0 4 -9 -10 -25z m115 -4 c19 -20 24 -31 16 -36 -7 -5 -22 4 -36 21 -41 51 -25
62 20 15z m-1004 -9 c0 -24 -8 -32 -26 -25 -10 4 -11 9 -1 24 15 24 27 24 27
1z m245 -2 c-6 -18 27 -110 40 -110 3 0 1 9 -5 19 -14 27 -13 38 6 45 9 3 12
2 8 -5 -6 -11 28 -49 44 -49 13 0 36 -29 29 -37 -12 -11 -82 -12 -96 0 -12 10
-12 9 0 -10 8 -13 20 -23 27 -23 18 0 2 -15 -65 -60 -29 -19 -54 -42 -57 -50
-2 -8 -4 -2 -5 14 -1 20 9 38 35 64 23 23 33 40 28 48 -43 57 -47 66 -34 74
10 6 11 12 2 22 -6 8 -10 24 -9 36 1 24 13 29 20 10 2 -8 9 -5 18 10 17 27 22
28 14 2z m316 -11 c11 -5 17 -14 14 -19 -6 -10 -45 9 -45 22 0 11 8 10 31 -3z
m719 -25 c0 -8 -4 -12 -10 -9 -5 3 -10 10 -10 16 0 5 5 9 10 9 6 0 10 -7 10
-16z m-1156 -17 c-4 -14 -3 -18 7 -13 8 4 5 0 -5 -8 -26 -21 -33 -20 -46 3
-16 31 -12 40 20 39 26 -1 29 -4 24 -21z m376 13 c0 -5 -7 -10 -15 -10 -10 0
-15 -10 -15 -29 0 -24 -3 -28 -20 -24 -11 3 -20 8 -20 12 1 11 25 37 45 49 25
14 25 14 25 2z m280 -17 c0 -13 -3 -13 -15 -3 -12 10 -15 9 -15 -4 0 -14 -4
-15 -20 -6 -25 13 -26 27 -2 32 27 6 52 -3 52 -19z m1250 7 c0 -27 -27 -37
-47 -17 -20 19 -9 37 23 37 17 0 24 -5 24 -20z m-590 -10 c0 -19 -18 -19 -23
-1 -3 14 -1 18 9 14 8 -3 14 -9 14 -13z m417 -4 c-2 -6 -13 -12 -25 -14 -16
-3 -22 2 -22 16 0 15 5 18 25 14 14 -2 24 -10 22 -16z m-1264 -6 c-3 -11 -7
-20 -8 -20 -1 0 -5 9 -8 20 -3 12 0 20 8 20 8 0 11 -8 8 -20z m231 -4 c23 9
26 -23 5 -45 -26 -27 -48 -27 -89 4 l-34 25 47 0 c42 0 47 3 48 23 1 16 3 17
6 5 2 -9 10 -15 17 -12z m162 -8 c-1 -24 -9 -37 -28 -48 -30 -16 -52 -5 -27
13 8 7 24 24 33 40 10 15 20 27 21 27 1 0 2 -15 1 -32z m270 6 c-10 -25 3 -54
20 -47 7 3 14 0 14 -6 0 -6 -5 -11 -11 -11 -6 0 -17 -7 -26 -15 -14 -14 -13
-15 13 -10 l29 7 -24 -20 c-13 -11 -21 -24 -17 -31 4 -6 1 -11 -8 -11 -9 0
-16 -4 -16 -10 0 -5 -7 -10 -15 -10 -20 0 -19 15 3 37 19 19 30 79 12 68 -18
-11 -22 25 -6 50 18 28 42 34 32 9z m-857 -20 c-17 -21 -31 -17 -19 6 6 11 15
18 21 14 6 -4 6 -11 -2 -20z m1001 -3 c0 -11 -4 -23 -10 -26 -6 -4 -10 5 -10
19 0 14 5 26 10 26 6 0 10 -9 10 -19z m-3615 -21 c3 -5 1 -10 -4 -10 -6 0 -11
5 -11 10 0 6 2 10 4 10 3 0 8 -4 11 -10z m2945 0 c13 -8 13 -10 -2 -10 -9 0
-20 5 -23 10 -8 13 5 13 25 0z m180 -21 c0 -5 -10 -9 -23 -9 -13 0 -24 6 -24
13 0 9 9 12 24 9 13 -2 23 -8 23 -13z m-2934 -2 c8 3 14 0 14 -6 0 -12 -11
-14 -34 -5 -9 3 -13 11 -9 17 5 8 8 8 10 0 3 -7 11 -9 19 -6z m2734 3 c12 -8
11 -10 -7 -10 -12 0 -25 5 -28 10 -8 13 15 13 35 0z m869 1 c11 -7 10 -11 -5
-19 -11 -5 -24 -8 -30 -5 -6 2 -16 -8 -22 -22 -15 -33 -15 -36 3 -29 8 4 15 1
15 -5 0 -6 -5 -11 -11 -11 -7 0 -9 -9 -6 -22 3 -12 2 -30 -4 -40 -8 -15 -6
-18 11 -18 11 0 20 -7 20 -15 0 -11 -5 -12 -26 -5 -14 6 -44 7 -66 4 -28 -5
-42 -3 -48 6 -6 9 -12 6 -25 -14 -20 -30 -40 -33 -54 -8 -13 25 7 48 49 57 19
4 40 12 47 17 7 5 22 7 33 3 20 -6 22 -4 20 32 -2 21 -2 46 -1 56 1 21 21 23
21 1 0 -8 5 -12 10 -9 6 3 10 15 10 27 0 14 5 18 15 14 8 -3 15 -1 15 4 0 12
11 12 29 1z m-1509 -11 c0 -5 -7 -10 -16 -10 -8 0 -12 5 -9 10 3 6 10 10 16
10 5 0 9 -4 9 -10z m953 -5 c-3 -9 -8 -14 -10 -11 -3 3 -2 9 2 15 9 16 15 13
8 -4z m-2986 -11 c3 -8 0 -21 -7 -27 -10 -10 -12 -8 -7 6 4 11 1 17 -9 17 -8
0 -12 5 -9 10 9 15 25 12 32 -6z m2619 0 c-3 -9 -6 -18 -6 -20 0 -2 -7 -4 -15
-4 -13 0 -14 4 -5 20 13 24 35 27 26 4z m524 -33 c-7 -14 -7 -21 -1 -21 6 0 8
-7 5 -15 -4 -8 -10 -15 -14 -15 -11 0 -21 43 -11 50 5 3 12 16 17 30 6 19 9
21 12 8 2 -9 -2 -26 -8 -37z m-3210 -44 c0 -6 -9 2 -20 16 -11 14 -20 36 -20
48 0 19 4 16 20 -16 11 -22 20 -43 20 -48z m-55 63 c-3 -5 -11 -10 -16 -10 -6
0 -7 5 -4 10 3 6 11 10 16 10 6 0 7 -4 4 -10z m2215 0 c0 -5 -2 -10 -4 -10 -3
0 -8 5 -11 10 -3 6 -1 10 4 10 6 0 11 -4 11 -10z m308 -8 c2 -7 -3 -12 -12
-12 -9 0 -16 7 -16 16 0 17 22 14 28 -4z m1307 9 c7 -13 -35 -83 -48 -78 -6 2
-15 11 -21 21 -9 14 -6 22 17 42 30 26 42 29 52 15z m-4169 -21 c0 -23 -18
-26 -35 -6 -10 12 -8 15 11 19 13 2 23 5 23 6 1 0 1 -8 1 -19z m54 -15 c0 -5
-5 -3 -10 5 -5 8 -10 20 -10 25 0 6 5 3 10 -5 5 -8 10 -19 10 -25z m3321 22
c8 -7 18 -19 21 -28 5 -14 1 -14 -32 -6 -30 8 -45 7 -73 -6 -44 -21 -42 -22
-42 7 0 23 2 24 55 18 50 -5 54 -4 41 11 -11 14 -11 17 0 17 8 0 21 -6 30 -13z
m84 -7 c3 -5 -1 -10 -9 -10 -9 0 -16 5 -16 10 0 6 4 10 9 10 6 0 13 -4 16 -10z
m65 -5 c0 -8 -7 -15 -15 -15 -8 0 -15 5 -15 11 0 5 5 7 10 4 6 -3 10 -1 10 4
0 6 2 11 5 11 3 0 5 -7 5 -15z m26 0 c-4 -24 -16 -30 -16 -7 0 12 4 22 9 22 5
0 8 -7 7 -15z m-773 -1 c3 -4 -1 -14 -10 -23 -13 -12 -17 -13 -21 -3 -7 21
-52 -27 -52 -55 0 -13 -5 -23 -11 -23 -6 0 -9 7 -5 15 3 8 1 15 -4 15 -6 0
-10 -7 -10 -15 0 -14 -13 -20 -34 -16 -5 1 -3 -5 4 -14 9 -11 23 -15 42 -11
35 7 46 -10 12 -18 -17 -5 -35 -1 -50 9 -19 12 -23 21 -18 43 4 15 13 31 21
35 7 5 21 16 31 26 33 35 87 53 105 35z m-2273 -14 c0 -5 -2 -10 -4 -10 -3 0
-8 5 -11 10 -3 6 -1 10 4 10 6 0 11 -4 11 -10z m2471 -7 c13 -16 12 -17 -3 -4
-17 13 -22 21 -14 21 2 0 10 -8 17 -17z m-3011 -8 c0 -12 -19 -12 -23 0 -4 9
-1 12 9 8 7 -3 14 -7 14 -8z m395 5 c3 -5 1 -10 -4 -10 -6 0 -11 5 -11 10 0 6
2 10 4 10 3 0 8 -4 11 -10z m2136 -22 c-13 -5 -26 -6 -29 -3 -3 3 0 5 6 5 7 0
12 5 12 11 0 8 -5 7 -15 -1 -13 -11 -18 -11 -28 0 -10 10 -9 12 5 7 10 -3 20
-2 23 3 4 6 14 6 28 -1 l21 -12 -23 -9z m2705 15 c7 -10 14 -25 14 -34 0 -8
11 -25 25 -37 14 -12 25 -26 25 -32 0 -5 -18 -28 -40 -50 -54 -54 -56 -102 -2
-74 15 8 36 14 48 14 11 0 29 9 39 20 23 25 68 23 73 -3 2 -10 -10 -30 -29
-48 -18 -17 -38 -40 -44 -52 -15 -31 -43 -33 -73 -4 -28 26 -123 67 -155 67
-24 0 -139 89 -134 103 2 8 26 11 63 11 49 -2 60 -5 63 -20 5 -27 21 -44 40
-44 23 0 68 49 76 82 6 23 3 29 -18 37 -37 14 -50 42 -30 63 20 23 42 23 59 1z
m-7016 -3 c14 0 21 -32 9 -46 -28 -34 -78 1 -57 39 5 11 16 16 25 13 8 -3 18
-6 23 -6z m1895 0 c3 -5 1 -10 -4 -10 -6 0 -11 5 -11 10 0 6 2 10 4 10 3 0 8
-4 11 -10z m3752 3 c-4 -3 -1 -13 6 -22 11 -14 10 -14 -5 -2 -16 12 -16 31 -1
31 4 0 3 -3 0 -7z m-3813 -19 c3 -8 2 -12 -4 -9 -6 3 -10 10 -10 16 0 14 7 11
14 -7z m466 1 c0 -8 -2 -15 -4 -15 -2 0 -6 7 -10 15 -3 8 -1 15 4 15 6 0 10
-7 10 -15z m122 -4 c-8 -5 -18 -24 -22 -42 l-8 -34 -1 31 c-1 30 14 54 34 54
5 0 4 -4 -3 -9z m2251 -4 c4 3 7 -2 7 -12 0 -22 28 -55 47 -55 8 0 11 -4 8
-10 -3 -5 -1 -10 4 -10 6 0 11 -5 11 -10 0 -6 -17 -10 -39 -8 -22 1 -39 4 -39
7 1 3 -8 26 -20 51 -12 25 -22 38 -22 29 0 -9 -9 -24 -20 -34 -11 -10 -20 -15
-20 -11 0 4 -10 1 -22 -5 -23 -12 -23 -12 -4 9 10 12 27 24 38 28 12 3 17 12
14 20 -3 8 -2 12 3 9 5 -3 13 -1 16 5 5 8 11 8 19 1 7 -6 16 -8 19 -4z m2437
-13 c0 -8 -4 -12 -10 -9 -5 3 -10 13 -10 21 0 8 5 12 10 9 6 -3 10 -13 10 -21z
m-4603 -1 c3 -7 -4 -9 -17 -6 -14 4 -26 -1 -35 -13 -13 -18 -14 -18 -15 -1 0
28 59 46 67 20z m33 7 c0 -5 -5 -10 -11 -10 -5 0 -7 5 -4 10 3 6 8 10 11 10 2
0 4 -4 4 -10z m1758 1 c20 -6 30 -6 27 0 -11 17 15 9 35 -11 11 -11 20 -15 20
-10 0 6 6 5 14 -2 21 -19 11 -25 -43 -26 -48 -2 -101 24 -101 49 0 11 7 11 48
0z m-96 -26 c-2 -14 -8 -25 -13 -25 -12 0 -11 7 1 31 14 26 18 24 12 -6z m327
-19 c-9 -8 -10 -7 -5 7 3 10 7 24 7 30 1 7 3 4 6 -7 3 -10 -1 -23 -8 -30z
m971 27 c0 -21 -37 -35 -60 -23 -36 19 -25 41 20 38 24 -1 40 -7 40 -15z m315
-3 c-3 -5 -11 -10 -16 -10 -6 0 -7 5 -4 10 3 6 11 10 16 10 6 0 7 -4 4 -10z
m138 3 c-7 -2 -21 -2 -30 0 -10 3 -4 5 12 5 17 0 24 -2 18 -5z m-4055 -15 c-2
-6 -10 -14 -16 -16 -7 -2 -10 2 -6 12 7 18 28 22 22 4z m3049 -10 c-3 -8 -6
-5 -6 6 -1 11 2 17 5 13 3 -3 4 -12 1 -19z m-3157 2 c0 -5 -2 -10 -4 -10 -3 0
-8 5 -11 10 -3 6 -1 10 4 10 6 0 11 -4 11 -10z m51 -13 c-1 -12 -15 -9 -19 4
-3 6 1 10 8 8 6 -3 11 -8 11 -12z m2818 -32 c0 -5 -6 -1 -14 9 -8 11 -15 24
-15 30 0 5 7 1 15 -10 8 -10 14 -23 14 -29z m515 28 c13 -32 -15 -41 -116 -35
-16 1 -28 6 -28 11 0 5 9 7 20 4 13 -3 20 0 20 9 0 8 12 15 32 16 18 2 34 5
37 7 10 11 29 4 35 -12z m879 10 c9 -9 -22 -43 -40 -43 -7 0 -13 11 -13 25 0
20 5 25 23 25 13 0 27 -3 30 -7z m-3447 -58 c-4 -14 -11 -25 -16 -25 -14 0
-12 44 2 58 16 16 22 0 14 -33z m1393 15 c-6 -16 -15 -30 -20 -30 -5 0 -9 -5
-9 -11 0 -14 -86 -123 -129 -163 -17 -17 -31 -25 -31 -19 0 6 7 16 16 23 8 8
20 23 25 34 7 14 0 10 -20 -11 -17 -18 -31 -37 -31 -42 0 -6 -5 -11 -11 -11
-6 0 -9 -7 -5 -15 3 -8 1 -15 -5 -15 -6 0 -17 -7 -25 -15 -8 -8 -22 -11 -32
-8 -14 5 -13 2 3 -11 11 -10 14 -15 8 -11 -9 4 -11 1 -7 -10 6 -14 12 -11 41
17 27 26 37 30 51 22 31 -20 26 -43 -11 -59 -55 -23 -64 -66 -17 -85 24 -10
28 -15 19 -26 -6 -8 -25 -14 -41 -14 -16 0 -41 -7 -56 -16 -22 -13 -24 -13 -8
-1 10 9 15 21 11 27 -3 6 3 18 15 28 16 13 19 22 13 37 -9 23 -33 32 -33 12 0
-9 -3 -9 -9 1 -6 10 -12 5 -20 -20 -10 -29 -13 -31 -22 -15 -6 9 -7 22 -3 28
3 6 -3 19 -15 30 -12 11 -21 16 -21 12 0 -4 -5 0 -11 10 -9 14 -7 22 8 32 17
14 16 14 -9 13 -15 -1 -25 -4 -22 -7 2 -2 -3 -15 -11 -28 -9 -13 -12 -23 -8
-23 11 0 -20 -20 -31 -20 -4 0 -5 7 -2 16 3 9 0 24 -7 34 -13 18 -13 18 -25
-1 -7 -11 -8 -19 -2 -19 5 0 10 6 11 13 0 9 2 8 6 -1 5 -13 -43 -72 -58 -72
-4 0 -5 10 -2 21 4 15 0 27 -12 35 -16 12 -10 22 81 112 161 161 311 249 426
251 l57 1 -10 -30z m274 10 c-10 -11 -19 -20 -21 -20 -1 0 2 9 8 20 6 11 15
20 20 20 6 0 2 -9 -7 -20z m573 -8 c-18 -16 -18 -16 -6 6 6 13 14 21 18 18 3
-4 -2 -14 -12 -24z m1130 -9 c-10 -73 -51 -126 -71 -93 -4 6 -13 4 -23 -6 -11
-12 -17 -13 -20 -5 -6 17 37 51 54 44 8 -3 14 -2 12 3 -2 9 43 94 50 94 2 0 1
-17 -2 -37z m-1646 17 c0 -6 -7 -13 -16 -17 -13 -5 -12 -8 5 -25 22 -19 28
-53 12 -62 -5 -3 -14 6 -20 22 -6 15 -16 34 -22 43 -10 13 -9 20 2 32 16 18
39 22 39 7z m304 -12 c23 -32 20 -36 -21 -43 -21 -4 -45 -9 -54 -11 -9 -3 -20
5 -27 20 -10 22 -8 26 21 40 44 21 63 20 81 -6z m-2164 2 c0 -5 -5 -10 -11
-10 -5 0 -7 5 -4 10 3 6 8 10 11 10 2 0 4 -4 4 -10z m3317 -12 c-3 -8 -6 -5
-6 6 -1 11 2 17 5 13 3 -3 4 -12 1 -19z m-1335 -6 c-7 -2 -12 -10 -12 -18 0
-11 8 -14 30 -10 24 3 30 1 30 -14 0 -28 -30 -33 -56 -9 -19 18 -21 25 -12 45
6 13 16 20 21 17 8 -5 7 -8 -1 -11z m-1802 -6 c0 -23 -16 -27 -17 -5 -1 10 2
19 8 19 5 0 9 -6 9 -14z m1428 -5 c9 -5 11 -17 6 -35 -4 -16 -1 -33 7 -43 8
-9 9 -14 2 -10 -6 4 -14 1 -16 -5 -4 -10 -8 -9 -16 2 -9 12 -11 13 -11 1 0 -8
-2 -12 -5 -9 -3 3 0 17 6 31 10 22 9 31 -5 52 -15 24 -15 25 1 25 10 0 24 -4
31 -9z m-1623 -11 c3 -5 1 -10 -4 -10 -6 0 -11 5 -11 10 0 6 2 10 4 10 3 0 8
-4 11 -10z m2496 -2 c0 -10 2 -10 6 0 6 16 23 5 23 -15 0 -18 -32 -48 -73 -70
l-28 -14 17 25 c10 16 12 26 5 26 -16 0 -13 21 6 42 19 21 43 24 44 6z m-4758
-30 c-26 -46 -43 -47 -43 -4 0 34 2 36 31 36 l31 0 -19 -32z m3850 12 c3 -11
1 -20 -4 -20 -5 0 -9 9 -9 20 0 11 2 20 4 20 2 0 6 -9 9 -20z m667 11 c0 -5
-6 -12 -12 -14 -8 -3 -5 -6 5 -6 10 -1 27 4 37 9 15 8 22 6 34 -11 14 -20 13
-23 -7 -40 -28 -22 -36 -15 -12 11 20 22 14 26 -16 10 -13 -8 -25 -7 -39 0
-23 12 -27 50 -5 50 8 0 15 -4 15 -9z m133 -48 c11 -13 16 -23 11 -23 -17 0
-44 40 -43 63 1 20 2 20 6 2 3 -11 14 -30 26 -42z m857 46 c0 -6 7 -9 15 -5 8
3 15 1 15 -3 0 -5 -20 -11 -43 -12 -28 -3 -44 0 -44 8 0 6 6 9 14 6 7 -3 13 0
13 6 0 6 7 11 15 11 8 0 15 -5 15 -11z m-3095 -8 c7 -12 -12 -24 -25 -16 -11
7 -4 25 10 25 5 0 11 -4 15 -9z m2806 -1 c6 0 8 -4 4 -9 -8 -15 -45 -9 -45 7
0 9 6 12 16 8 9 -3 20 -6 25 -6z m-3015 -16 c-3 -9 -6 -18 -6 -20 0 -2 -7 -4
-15 -4 -13 0 -14 4 -5 20 13 24 35 27 26 4z m132 -2 c-21 -4 -24 -18 -5 -25 9
-4 9 -6 0 -6 -16 -1 -24 14 -17 32 3 10 12 13 22 9 16 -6 15 -7 0 -10z m525
12 c3 -3 -6 -17 -21 -31 -18 -16 -23 -26 -14 -30 6 -2 12 -9 12 -15 0 -5 7
-16 15 -24 22 -23 18 -29 -16 -28 -33 1 -56 25 -43 46 4 7 3 8 -4 4 -24 -15
-11 26 17 55 29 29 42 34 54 23z m1327 -21 c0 -16 -5 -35 -10 -43 -6 -10 -9
-2 -7 28 1 46 17 59 17 15z m838 18 c10 -6 8 -10 -9 -14 -26 -7 -42 0 -34 14
8 11 26 11 43 0z m392 -6 c0 -8 -4 -15 -10 -15 -5 0 -10 7 -10 15 0 8 5 15 10
15 6 0 10 -7 10 -15z m460 -3 c0 -9 -44 -32 -59 -32 -5 0 -11 9 -14 20 -4 17
0 20 34 20 21 0 39 -4 39 -8z m-1402 -20 c2 -7 -2 -10 -12 -6 -9 3 -16 11 -16
16 0 13 23 5 28 -10z m646 -31 c-8 -9 -34 10 -34 25 0 16 2 16 19 -2 10 -10
17 -21 15 -23z m-2824 14 c0 -8 -4 -15 -8 -15 -5 0 -9 7 -9 15 0 8 4 15 9 15
4 0 8 -7 8 -15z m2004 -55 c-21 -38 -40 -70 -44 -70 -10 0 -40 73 -33 80 3 3
8 -1 10 -8 3 -7 13 -17 23 -22 16 -9 22 -4 36 27 18 39 33 63 40 63 3 0 -12
-31 -32 -70z m-1375 51 c8 -5 9 -11 3 -15 -13 -8 -42 3 -42 15 0 11 21 11 39
0z m1990 -8 c0 -11 -3 -13 -6 -5 -2 6 -10 9 -15 6 -7 -4 -8 -2 -4 4 11 18 26
14 25 -5z m-3274 -3 c3 -5 1 -10 -4 -10 -6 0 -11 5 -11 10 0 6 2 10 4 10 3 0
8 -4 11 -10z m525 -11 c0 -15 -4 -19 -16 -15 -9 3 -22 6 -30 6 -8 0 -14 7 -14
15 0 10 10 15 30 15 24 0 30 -4 30 -21z m2301 -26 c-9 -16 -10 -15 -11 8 0 14
3 29 8 33 12 12 14 -22 3 -41z m704 38 c3 -5 1 -12 -4 -15 -5 -3 -11 1 -15 9
-6 16 9 21 19 6z m249 -16 c8 -11 19 -20 25 -20 6 0 11 -3 11 -7 0 -5 0 -12 0
-18 0 -14 -43 -12 -63 3 -9 6 -19 24 -22 38 -5 22 -3 26 14 25 11 0 27 -10 35
-21z m-3184 -6 c0 -4 -7 -6 -15 -3 -8 4 -15 10 -15 15 0 4 7 6 15 3 8 -4 15
-10 15 -15z m2210 2 c0 -10 -9 -21 -19 -24 -14 -3 -18 -1 -14 9 3 8 9 11 14 8
5 -3 9 2 9 10 0 9 2 16 5 16 3 0 5 -8 5 -19z m790 9 c8 -5 11 -12 7 -16 -4 -4
-15 0 -24 9 -18 18 -8 23 17 7z m1868 -22 c3 -23 -1 -28 -20 -29 -37 -2 -52 2
-67 16 -23 23 4 47 48 43 31 -3 36 -7 39 -30z m-4650 -3 c4 -18 -16 -37 -30
-29 -4 3 -8 12 -8 20 0 8 4 12 10 9 6 -4 7 1 3 11 -4 12 -2 15 8 12 8 -3 16
-13 17 -23z m37 7 c-3 -3 -11 0 -18 7 -9 10 -8 11 6 5 10 -3 15 -9 12 -12z
m2391 -19 c-8 -8 -36 10 -36 25 0 13 3 12 20 -3 11 -10 18 -20 16 -22z m-2486
18 c0 -4 -6 -15 -12 -24 -11 -14 -16 -14 -32 -2 -10 7 -15 18 -12 23 6 11 56
13 56 3z m157 -9 c-1 -14 -8 -16 -41 -13 l-41 4 33 8 c18 3 36 9 39 13 10 10
12 7 10 -12z m2088 8 c3 -5 19 -10 36 -10 31 0 32 -1 23 -24 -4 -11 -11 -13
-27 -6 -12 5 -35 11 -50 15 -24 5 -27 8 -17 20 14 17 26 19 35 5z m-3047 -23
c2 -12 -3 -17 -17 -17 -12 0 -21 6 -21 13 -1 8 -5 7 -13 -4 -7 -9 -18 -14 -25
-11 -10 3 -10 8 3 22 21 23 69 21 73 -3z m1067 13 c3 -5 1 -10 -4 -10 -6 0
-11 -6 -11 -14 0 -8 -5 -18 -12 -22 -7 -4 -8 -3 -4 4 4 7 1 12 -6 12 -9 0 -9
3 2 10 11 7 11 10 2 10 -7 0 -10 5 -7 10 3 6 12 10 20 10 8 0 17 -4 20 -10z
m100 -11 c-7 -22 12 -79 26 -79 14 0 11 -17 -7 -34 -21 -22 -33 -20 -44 7 -5
12 -9 17 -9 11 -1 -7 -12 -15 -26 -18 -14 -4 -25 -11 -25 -16 0 -6 -4 -10 -10
-10 -15 0 -5 43 11 49 16 5 39 27 39 37 0 9 40 74 46 74 3 0 2 -9 -1 -21z
m161 -3 c-2 -17 -35 -50 -42 -43 -8 8 28 67 37 61 4 -2 6 -10 5 -18z m1113 15
c10 -6 -4 -14 -45 -26 -67 -19 -120 -45 -181 -87 -24 -16 -40 -23 -37 -16 7
18 117 97 154 111 17 6 30 15 30 19 0 11 62 10 79 -1z m1121 -17 c0 -8 -7 -14
-15 -14 -15 0 -21 21 -9 33 10 9 24 -2 24 -19z m-3107 -13 c3 -12 -3 -27 -16
-38 -11 -10 -17 -12 -13 -5 4 7 2 19 -4 27 -6 8 -9 19 -5 25 10 17 32 11 38
-9z m2127 9 c0 -5 -7 -10 -15 -10 -8 0 -15 5 -15 10 0 6 7 10 15 10 8 0 15 -4
15 -10z m-1946 -15 c-4 -8 -10 -12 -15 -9 -11 6 -2 24 11 24 5 0 7 -7 4 -15z
m733 -7 c-3 -8 -6 -5 -6 6 -1 11 2 17 5 13 3 -3 4 -12 1 -19z m48 10 c-11 -6
-26 -19 -33 -27 -11 -13 -12 -13 -6 -1 13 28 26 40 43 40 13 -1 12 -3 -4 -12z
m-408 -4 c-3 -3 -12 -4 -19 -1 -8 3 -5 6 6 6 11 1 17 -2 13 -5z m4042 -23 c12
-12 28 -21 36 -21 8 0 15 -9 15 -20 0 -11 -7 -21 -15 -21 -8 -1 -19 -3 -25 -4
-5 -1 -14 -3 -20 -4 -5 0 -10 -8 -10 -16 0 -23 -35 -18 -66 8 l-27 24 34 7 34
7 -29 23 c-17 15 -26 28 -21 36 11 18 69 6 94 -19z m-4070 3 c8 5 9 -5 6 -34
-4 -30 -2 -42 10 -46 19 -8 19 -30 0 -38 -8 -3 -15 -11 -15 -19 0 -16 -66 -22
-75 -7 -3 6 -10 8 -15 5 -5 -3 -14 4 -20 15 -12 22 -1 27 18 8 16 -16 32 5 32
42 0 19 2 22 10 10 8 -12 10 -12 16 3 3 9 4 28 0 41 -6 26 4 43 15 25 4 -6 12
-8 18 -5z m3499 -17 c18 3 38 0 46 -6 10 -9 16 -8 26 4 19 23 30 18 30 -14 0
-40 -44 -63 -106 -54 -24 3 -44 10 -44 15 0 5 -4 6 -10 3 -5 -3 -7 0 -4 9 3 8
-2 25 -10 38 -21 32 -9 44 18 19 15 -13 30 -17 54 -14z m903 8 c9 -5 24 -25
33 -42 9 -18 23 -33 31 -33 24 0 17 -17 -15 -40 -35 -25 -56 -21 -94 19 -30
32 -46 98 -26 111 13 8 44 2 71 -15z m-5261 11 c0 -3 -4 -8 -10 -11 -5 -3 -10
-1 -10 4 0 6 5 11 10 11 6 0 10 -2 10 -4z m430 -68 c0 -12 -8 -18 -24 -18 -30
0 -54 54 -34 78 10 12 16 10 35 -14 13 -16 23 -37 23 -46z m3090 34 c0 -9 -5
-24 -10 -32 -8 -12 -10 -10 -10 8 0 13 -5 32 -11 43 -10 19 -9 19 10 9 12 -6
21 -18 21 -28z m110 29 c2 -1 -1 -6 -8 -13 -8 -8 -15 -8 -27 2 -12 10 -15 10
-15 -5 0 -10 -3 -16 -6 -12 -4 3 -4 12 -1 20 4 11 23 14 57 8z m391 -42 c5
-11 6 -19 1 -19 -5 0 -14 10 -20 23 -11 21 -11 21 -7 -5 3 -25 0 -28 -23 -28
-25 -1 -25 -2 -8 -12 14 -8 24 -8 39 1 10 7 22 10 25 6 8 -8 -18 -25 -40 -25
-34 0 -48 12 -43 36 17 82 13 76 41 58 13 -9 29 -25 35 -35z m-3816 31 c3 -5
-3 -10 -15 -10 -12 0 -18 5 -15 10 3 6 10 10 15 10 5 0 12 -4 15 -10z m2942 4
c-3 -3 -12 -4 -19 -1 -8 3 -5 6 6 6 11 1 17 -2 13 -5z m183 -14 c8 -5 11 -12
8 -16 -10 -9 -38 3 -38 16 0 12 10 13 30 0z m1310 1 c0 -5 -6 -14 -14 -20 -16
-13 -32 2 -21 19 8 12 35 13 35 1z m-4740 -21 c0 -11 -7 -20 -15 -20 -27 0
-18 30 13 39 1 1 2 -8 2 -19z m3287 14 c-3 -3 -23 -10 -44 -14 -34 -8 -36 -7
-19 6 19 13 76 21 63 8z m1953 -16 c5 -13 11 -35 14 -49 3 -16 14 -29 27 -32
12 -3 19 -11 16 -19 -3 -9 -20 -12 -55 -11 l-50 2 -7 -37 c-8 -44 -22 -72 -35
-72 -6 0 -10 9 -10 20 0 26 -22 26 -46 -1 -26 -29 -75 -53 -83 -41 -3 5 -21
13 -39 17 -18 4 -36 14 -39 22 -8 21 25 45 50 37 10 -3 26 1 35 9 9 8 33 22
52 32 76 36 78 37 84 86 7 49 14 57 54 58 14 1 26 -7 32 -21z m-6747 6 c3 -4
2 -15 -4 -25 -7 -13 -6 -36 1 -72 21 -94 19 -108 -18 -133 -18 -13 -38 -24
-45 -27 -9 -3 -9 -7 1 -19 10 -12 9 -18 -2 -28 -22 -18 -39 -2 -32 31 5 28 -6
40 -19 19 -10 -16 -45 -11 -72 10 -17 13 -41 20 -72 20 -48 0 -92 17 -98 37
-6 17 51 44 103 48 36 3 46 0 55 -16 10 -19 11 -18 32 13 13 18 32 37 43 43
11 6 18 18 16 28 -5 23 15 47 38 47 10 0 20 7 24 15 5 15 37 21 49 9z m1752
-4 c3 -5 2 -10 -4 -10 -5 0 -13 5 -16 10 -3 6 -2 10 4 10 5 0 13 -4 16 -10z
m1100 -17 c-13 -19 -14 -25 -4 -21 10 4 15 -5 17 -31 l2 -36 -25 27 c-29 32
-32 63 -7 77 29 17 35 12 17 -16z m105 -14 c0 -17 -5 -39 -10 -49 -8 -16 -8
-18 5 -14 8 4 15 15 15 26 0 10 12 31 26 46 l25 27 -18 -32 c-14 -25 -15 -35
-6 -44 10 -10 14 -7 22 13 5 14 17 28 26 32 14 5 16 2 10 -11 -4 -10 -8 -26
-9 -35 0 -13 -16 -22 -53 -33 -29 -9 -53 -18 -53 -21 0 -4 9 -4 19 -1 13 3 18
1 14 -8 -3 -10 -11 -11 -34 -3 -20 7 -28 15 -25 25 4 8 1 11 -5 7 -15 -9 -1
36 17 54 8 7 14 22 14 33 0 10 5 19 10 19 6 0 10 -14 10 -31z m160 -92 c0 -35
-4 -47 -12 -45 -7 3 -15 15 -16 27 -3 16 0 21 8 16 11 -7 9 15 -6 90 -2 11 3
7 11 -10 8 -16 14 -52 15 -78z m1224 56 c-10 -7 -27 -13 -37 -13 -16 0 -17 2
-7 15 11 13 10 15 -6 9 -18 -5 -18 -5 -1 6 10 6 25 9 32 6 8 -3 14 -2 14 2 -3
21 3 25 13 8 9 -15 7 -22 -8 -33z m1356 37 c-20 -13 -33 -13 -25 0 3 6 14 10
23 10 15 0 15 -2 2 -10z m-3562 -25 c0 -14 -4 -28 -9 -31 -10 -6 -12 39 -2 49
10 10 11 9 11 -18z m1486 -13 c-26 -23 -31 -32 -27 -59 3 -18 7 -33 9 -33 2 0
14 11 28 25 14 14 35 25 48 24 15 0 18 -3 8 -6 -8 -4 -27 -19 -43 -34 l-28
-28 26 -7 c28 -7 27 -6 19 -28 -8 -22 -21 -20 -27 4 -3 12 -14 20 -26 20 -16
0 -21 6 -21 25 0 14 -7 42 -15 62 -11 26 -12 33 -2 25 10 -8 21 -5 42 13 41
33 48 31 9 -3z m895 5 c6 -8 7 -17 3 -22 -4 -4 3 -5 16 -2 15 3 26 -1 36 -15
13 -19 14 -19 19 -1 4 12 5 10 4 -6 -2 -28 -28 -47 -48 -37 -67 34 -82 51 -68
78 12 21 23 23 38 5z m1800 4 c9 -6 22 -6 34 0 14 8 22 6 33 -8 15 -20 18 -81
5 -102 -11 -18 -49 -9 -78 19 -23 21 -43 26 -43 11 0 -5 -9 -7 -20 -4 -23 6
-27 31 -5 39 8 4 15 12 15 20 0 7 8 18 18 23 21 13 24 13 41 2z m-4483 -21 c0
-11 -4 -20 -8 -20 -10 0 -11 24 -1 33 9 9 9 10 9 -13z m3029 -24 c-10 -23 -13
-50 -10 -70 5 -24 3 -35 -7 -39 -24 -9 -17 122 7 139 26 19 28 13 10 -30z
m638 37 c-7 -2 -19 -2 -25 0 -7 3 -2 5 12 5 14 0 19 -2 13 -5z m-2820 -40 c-6
-15 -23 -18 -23 -4 0 5 3 17 6 26 5 12 9 14 14 4 5 -7 6 -18 3 -26z m-53 11
c0 -2 -10 -8 -21 -15 -17 -8 -23 -8 -30 2 -4 7 -6 16 -4 20 4 6 55 0 55 -7z
m126 -22 c-18 -16 -18 -16 -6 6 6 13 14 21 18 18 3 -4 -2 -14 -12 -24z m565
-1 c-13 -9 -34 -26 -47 -38 l-24 -22 0 28 c0 29 15 41 51 41 10 0 19 5 19 11
0 5 5 7 12 3 8 -5 4 -12 -11 -23z m-1081 -1 c6 -11 7 -20 3 -20 -5 0 -14 9
-21 20 -7 11 -8 20 -2 20 5 0 14 -9 20 -20z m1740 -12 c0 -6 -7 -5 -15 2 -8 7
-15 17 -15 22 0 6 7 5 15 -2 8 -7 15 -17 15 -22z m-1578 -11 c10 -3 10 -8 2
-17 -9 -9 -15 -6 -28 11 -20 29 -21 45 -1 26 8 -9 20 -17 27 -20z m410 1 c5
-34 -5 -44 -25 -24 -8 8 -18 12 -22 8 -4 -4 -5 0 -3 8 3 8 11 14 18 12 7 -2
10 3 7 11 -3 7 1 14 8 14 7 0 15 -13 17 -29z m38 -4 c0 -26 -28 -89 -36 -81
-2 2 2 23 11 46 8 23 11 49 8 58 -4 11 -3 14 5 9 7 -4 12 -18 12 -32z m1825
27 c3 -5 1 -12 -5 -16 -5 -3 -10 1 -10 9 0 18 6 21 15 7z m302 -13 c-3 -8 -6
-5 -6 6 -1 11 2 17 5 13 3 -3 4 -12 1 -19z m-1897 -3 c0 -21 -26 -44 -60 -53
l-35 -10 33 -14 c29 -13 31 -16 18 -27 -21 -18 -63 -6 -71 19 -3 11 -10 20
-15 20 -5 0 3 17 17 39 23 35 28 38 69 37 24 0 44 -5 44 -11z m1290 10 c0 -12
-62 -65 -70 -60 -19 12 -10 32 23 47 35 17 47 20 47 13z m428 -12 c-6 -7 -19
-13 -30 -13 -17 0 -18 3 -9 14 7 8 21 14 31 13 14 -1 16 -4 8 -14z m235 -2
c-8 -32 -7 -36 5 -33 6 1 12 -2 12 -8 0 -12 -37 -14 -43 -2 -9 13 5 63 17 59
6 -3 10 -10 9 -16z m-2289 -17 c3 -8 2 -12 -4 -9 -6 3 -10 1 -10 -4 0 -6 5
-11 11 -11 5 0 7 -5 4 -10 -9 -15 14 -40 31 -33 7 3 12 9 9 13 -3 4 2 10 10
14 13 5 13 1 2 -27 -16 -39 -44 -48 -49 -15 l-5 23 -10 -24 c-6 -16 -12 -20
-17 -13 -4 7 -11 10 -16 7 -9 -5 -5 18 12 73 10 35 22 41 32 16z m-490 -9 c-4
-8 -10 -12 -15 -9 -11 6 -2 24 11 24 5 0 7 -7 4 -15z m1626 -29 c0 11 3 23 6
27 11 11 36 -23 30 -40 -4 -8 -2 -21 4 -28 20 -24 1 -63 -32 -67 -29 -5 -30
-4 -25 28 4 24 -1 40 -19 65 -35 48 -30 72 6 29 26 -29 30 -31 30 -14z m-2271
20 c9 -10 9 -16 1 -21 -6 -4 -12 -5 -13 -4 -2 2 -9 12 -16 22 -11 14 -11 17 2
17 8 0 20 -6 26 -14z m188 -8 c-3 -8 -6 -5 -6 6 -1 11 2 17 5 13 3 -3 4 -12 1
-19z m2863 12 c0 -5 -5 -10 -11 -10 -5 0 -7 5 -4 10 3 6 8 10 11 10 2 0 4 -4
4 -10z m151 -57 c-9 -16 -10 -16 -11 4 0 12 3 30 7 40 7 16 8 16 11 -4 2 -12
-1 -30 -7 -40z m476 51 c-3 -3 -12 -4 -19 -1 -8 3 -5 6 6 6 11 1 17 -2 13 -5z
m-2957 -25 c0 -18 -2 -20 -15 -9 -13 11 -13 15 -3 21 18 12 18 12 18 -12z m63
-2 c-4 -6 1 -8 14 -5 16 4 21 1 21 -18 0 -33 -15 -40 -39 -18 -23 21 -27 66
-4 58 8 -4 12 -11 8 -17z m1331 -4 c-6 -23 -30 -37 -45 -27 -13 8 9 34 27 34
8 0 14 5 14 12 0 6 2 9 5 7 2 -3 2 -14 -1 -26z m246 14 c0 -17 -29 -56 -30
-40 0 6 5 15 11 18 6 4 8 13 5 21 -3 8 -1 14 4 14 6 0 10 -6 10 -13z m821 -5
c-12 -22 -41 -47 -63 -55 -27 -9 -23 28 4 47 27 19 42 21 32 4 -4 -7 2 -5 12
5 23 22 27 22 15 -1z m-2321 -24 c0 -5 -4 -8 -10 -8 -5 0 -10 10 -10 23 0 18
2 19 10 7 5 -8 10 -18 10 -22z m1114 2 c-6 -6 -10 -2 -11 12 -2 16 1 18 10 9
7 -7 8 -14 1 -21z m1056 20 c0 -5 -4 -10 -10 -10 -5 0 -10 5 -10 10 0 6 5 10
10 10 6 0 10 -4 10 -10z m933 3 c-7 -2 -19 -2 -25 0 -7 3 -2 5 12 5 14 0 19
-2 13 -5z m-3846 -25 c18 -7 33 -17 33 -24 0 -9 -21 -11 -80 -7 -57 4 -80 3
-80 -6 0 -6 5 -11 10 -11 6 0 10 -7 10 -15 0 -22 -43 -19 -57 5 -11 16 -10 21
6 30 11 5 28 10 38 10 10 1 29 7 43 15 31 18 36 18 77 3z m852 4 c18 11 90 3
92 -10 0 -4 2 -15 4 -25 2 -9 -1 -15 -5 -12 -16 10 -90 13 -90 4 0 -11 -11
-11 -29 0 -9 6 -11 16 -6 32 5 13 10 19 12 12 3 -9 9 -9 22 -1z m499 -22 c2
-21 -1 -28 -11 -24 -9 3 -12 14 -9 30 6 33 17 30 20 -6z m262 -4 c0 -7 -6 -13
-14 -13 -8 0 -11 8 -8 19 5 19 22 15 22 -6z m491 -61 c5 4 9 -1 9 -9 0 -13 -6
-12 -35 5 -32 19 -65 54 -65 70 0 3 18 -11 41 -33 22 -21 44 -36 50 -33z m236
49 c-9 -9 -28 6 -21 18 4 6 10 6 17 -1 6 -6 8 -13 4 -17z m1478 16 c-3 -5 -10
-10 -16 -10 -5 0 -9 5 -9 10 0 6 7 10 16 10 8 0 12 -4 9 -10z m-3310 -21 c-10
-15 7 -10 26 7 19 17 39 12 39 -11 0 -16 -71 -17 -82 -1 -9 13 1 28 13 20 5
-3 7 -10 4 -15z m-95 4 c-8 -4 -21 -15 -28 -25 -15 -21 -32 -15 -32 10 0 13
10 17 38 19 20 1 30 -1 22 -4z m754 -7 c33 -14 66 -50 66 -71 -1 -5 -7 1 -14
14 -7 14 -24 26 -36 28 -13 2 -29 8 -35 13 -7 5 -14 7 -18 4 -3 -3 -15 -3 -28
1 -17 6 -19 9 -8 16 19 12 35 11 73 -5z m3840 -1 c-4 -8 -11 -15 -16 -15 -6 0
-5 6 2 15 7 8 14 15 16 15 2 0 1 -7 -2 -15z m-4084 -16 c0 -14 -17 -10 -23 5
-4 10 -1 13 9 9 7 -3 14 -9 14 -14z m732 -2 c-15 -18 21 -41 46 -29 83 42 87
43 68 28 -11 -9 -17 -19 -13 -22 4 -4 15 -1 24 7 16 13 17 12 4 -3 -7 -10 -22
-18 -32 -18 -10 0 -21 -4 -24 -10 -3 -5 -15 -10 -26 -10 -10 0 -19 -4 -19 -10
0 -5 9 -10 20 -10 11 0 20 4 20 9 0 5 7 11 15 15 19 7 19 -4 1 -29 -12 -16
-17 -17 -45 -6 -17 8 -31 19 -31 27 0 7 -6 11 -14 8 -11 -4 -13 0 -9 15 5 19
-4 26 -29 22 -5 0 -8 4 -8 10 0 6 6 9 14 6 8 -3 20 1 27 9 6 8 14 12 17 9 3
-2 0 -10 -6 -18z m1868 13 c0 -15 48 -12 53 3 2 6 8 9 12 4 11 -9 -24 -36 -47
-37 -10 0 -22 9 -28 20 -7 14 -7 20 0 20 5 0 10 -4 10 -10z m-3270 -13 c0 -7
-9 -13 -20 -13 -11 0 -20 6 -20 13 0 7 9 13 20 13 11 0 20 -6 20 -13z m2555 4
c3 -6 -4 -15 -15 -21 -11 -6 -20 -9 -20 -6 0 2 -3 11 -6 20 -4 11 0 16 14 16
12 0 23 -4 27 -9z m-1323 -18 c27 -32 31 -43 11 -36 -27 9 -43 24 -43 39 0 19
14 17 32 -3z m778 13 c0 -15 -14 -35 -21 -30 -5 3 -6 -1 -3 -9 7 -19 -14 -33
-28 -19 -14 14 16 62 37 62 8 0 15 -2 15 -4z m3085 -6 c7 -12 -12 -40 -26 -40
-10 0 -12 34 -2 43 9 10 21 9 28 -3z m-4566 -52 c1 -10 -6 -18 -14 -18 -16 0
-18 12 -8 49 6 23 7 23 14 5 4 -10 8 -27 8 -36z m611 48 c0 -2 -8 -10 -17 -17
-16 -13 -17 -12 -4 4 13 16 21 21 21 13z m690 -40 c-1 -35 -57 -50 -68 -17 -3
8 0 11 7 7 10 -6 16 12 12 36 0 4 10 2 24 -4 14 -6 25 -16 25 -22z m270 30 c0
-2 -7 -6 -15 -10 -8 -3 -15 -1 -15 4 0 6 7 10 15 10 8 0 15 -2 15 -4z m164 -4
c2 -4 -4 -14 -16 -21 -11 -7 -17 -8 -13 -2 3 6 -2 11 -12 11 -15 0 -16 2 -3
10 18 12 37 13 44 2z m-1504 -11 c0 -5 -6 -14 -14 -20 -10 -9 -15 -8 -19 3 -3
8 -3 17 0 20 9 9 33 7 33 -3z m90 5 c0 -3 -4 -8 -10 -11 -5 -3 -10 -1 -10 4 0
6 5 11 10 11 6 0 10 -2 10 -4z m213 -23 c31 3 35 -29 3 -35 -25 -5 -37 14 -35
52 1 11 3 10 6 -2 3 -11 13 -17 26 -15z m291 18 c3 -4 3 -11 0 -14 -8 -8 -34
3 -34 14 0 11 27 12 34 0z m-1499 -21 c10 -11 13 -20 7 -20 -6 0 -14 5 -17 10
-3 6 -15 10 -26 10 -11 0 -17 5 -14 10 10 16 30 12 50 -10z m197 -20 c-17 -41
-42 -54 -42 -22 0 22 10 36 35 50 11 6 21 12 22 12 1 0 -6 -18 -15 -40z m-48
15 c-7 -16 -24 -21 -24 -6 0 8 7 13 27 20 1 1 0 -6 -3 -14z m226 -11 c0 -9 -5
-14 -12 -12 -18 6 -21 28 -4 28 9 0 16 -7 16 -16z m180 2 c0 -24 -26 -38 -40
-21 -10 12 -10 15 4 15 9 0 16 5 16 10 0 6 5 10 10 10 6 0 10 -6 10 -14z m501
7 c-11 -5 -11 -7 0 -14 10 -6 8 -9 -8 -9 -23 0 -30 10 -16 23 3 4 13 7 22 6
12 0 13 -2 2 -6z m49 -1 c0 -13 -12 -22 -22 -16 -10 6 -1 24 13 24 5 0 9 -4 9
-8z m165 -2 c-3 -5 -10 -10 -16 -10 -5 0 -9 5 -9 10 0 6 7 10 16 10 8 0 12 -4
9 -10z m428 -5 c8 -19 -13 -31 -23 -14 -9 14 -4 29 10 29 4 0 10 -7 13 -15z
m-698 -22 c16 -18 27 -24 32 -17 5 5 18 10 30 10 17 0 19 -3 11 -13 -8 -9 -7
-13 2 -13 21 0 6 -10 -30 -20 -27 -8 -35 -6 -56 15 -16 16 -24 19 -24 10 0 -8
5 -17 10 -20 8 -5 7 -12 -2 -23 -12 -13 -10 -14 9 -4 44 24 82 -24 46 -57 -18
-17 -20 -17 -41 -1 -12 10 -22 24 -22 30 0 7 -6 10 -14 7 -22 -9 -27 5 -8 20
15 13 15 13 -5 3 -12 -5 -25 -15 -28 -20 -9 -15 -25 -12 -25 4 0 8 -7 22 -16
31 -21 21 -12 30 15 15 18 -9 21 -8 21 10 0 25 29 58 53 59 10 1 29 -11 42
-26z m486 5 c-27 -10 -91 -6 -84 5 3 5 17 6 31 3 15 -3 34 -2 42 3 8 5 18 7
24 4 5 -4 -1 -10 -13 -15z m737 -5 c4 -26 -31 -41 -53 -23 -11 9 -12 16 -2 31
16 26 51 21 55 -8z m692 17 c18 -12 2 -12 -25 0 -13 6 -15 9 -5 9 8 0 22 -4
30 -9z m-800 -57 c0 -7 -4 -13 -9 -13 -16 0 -33 30 -27 46 6 16 8 15 21 -2 8
-10 15 -25 15 -31z m241 29 c-13 -2 -27 0 -32 5 -6 6 3 7 23 4 28 -4 29 -6 9
-9z m375 -4 c-10 -6 -20 -7 -24 -3 -9 8 20 25 31 18 5 -3 2 -10 -7 -15z
m-1948 -16 c2 -12 -2 -22 -8 -22 -8 0 -10 -10 -8 -25 3 -14 2 -28 -3 -31 -11
-7 -21 35 -15 66 2 14 5 29 5 33 2 18 26 -1 29 -21z m458 1 c-10 -10 -19 5
-10 18 6 11 8 11 12 0 2 -7 1 -15 -2 -18z m691 21 c-3 -3 -12 -4 -19 -1 -8 3
-5 6 6 6 11 1 17 -2 13 -5z m-638 -20 c-14 -17 -1 -37 19 -29 11 4 8 -3 -8
-20 -16 -17 -31 -24 -44 -21 -11 3 -25 1 -32 -5 -8 -7 -14 -7 -18 0 -4 6 3 15
15 22 17 8 23 8 30 -2 6 -10 10 -10 23 1 23 18 12 24 -39 21 -38 -2 -45 0 -44
16 0 10 3 13 6 6 5 -14 74 -18 72 -5 -3 19 2 29 16 29 11 0 12 -4 4 -13z
m1229 3 c6 -5 12 -14 11 -20 0 -9 -2 -9 -6 1 -8 20 -30 14 -37 -10 -5 -19 -8
-20 -15 -9 -20 31 14 58 47 38z m-2484 -59 c-12 -17 -15 -18 -10 -5 3 11 9 31
13 45 7 25 8 26 11 5 2 -13 -4 -33 -14 -45z m600 54 c11 -19 -7 -52 -28 -51
-20 0 -20 1 -2 8 14 5 16 10 8 15 -17 10 -15 36 2 36 8 0 17 -4 20 -8z m-87
-36 c-4 -10 -13 -13 -23 -9 -15 6 -15 7 1 20 21 15 30 10 22 -11z m284 -18 c3
-20 11 -44 19 -52 10 -13 10 -16 -3 -16 -8 0 -21 -7 -28 -16 -12 -14 -15 -10
-29 32 -12 36 -14 53 -6 71 16 34 40 24 47 -19z m276 30 c0 -7 2 -17 3 -23 6
-23 -1 -35 -21 -35 -16 0 -19 4 -13 23 6 19 23 47 29 47 1 0 2 -6 2 -12z m793
-13 c7 -8 8 -15 2 -15 -5 0 -15 7 -22 15 -7 8 -8 15 -2 15 5 0 15 -7 22 -15z
m518 -15 c-15 -24 -22 -19 -13 9 3 12 11 19 16 16 5 -4 3 -14 -3 -25z m-1554
-29 c-6 -6 -11 1 -18 29 l-7 25 15 -25 c8 -14 12 -27 10 -29z m-402 17 c-4
-16 -2 -19 8 -13 9 6 11 4 5 -5 -6 -10 -11 -9 -22 5 -10 15 -10 20 0 27 6 4
13 8 14 8 0 0 -1 -10 -5 -22z m1611 2 c13 0 47 -30 47 -42 0 -15 -23 -8 -47
14 -13 12 -23 29 -22 37 0 11 2 12 6 4 2 -7 10 -13 16 -13z m-1843 -11 c0 -5
-18 -9 -40 -9 -37 0 -55 13 -28 22 18 6 68 -3 68 -13z m1307 -1 c-3 -8 -6 -5
-6 6 -1 11 2 17 5 13 3 -3 4 -12 1 -19z m1033 12 c0 -5 -4 -10 -9 -10 -5 0
-18 -3 -28 -6 -16 -6 -16 -5 2 9 23 19 35 21 35 7z m315 0 c3 -5 1 -10 -4 -10
-6 0 -11 5 -11 10 0 6 2 10 4 10 3 0 8 -4 11 -10z m-290 -10 c-3 -5 -1 -10 5
-10 6 0 8 -4 5 -10 -10 -16 -21 -11 -22 10 -1 11 3 20 8 20 6 0 7 -4 4 -10z
m315 -10 c0 -5 -8 -10 -17 -10 -15 0 -16 2 -3 10 19 12 20 12 20 0z m-2885
-10 c-3 -5 -12 -10 -18 -10 -7 0 -6 4 3 10 19 12 23 12 15 0z m938 -19 c3 -12
-1 -22 -9 -25 -8 -3 -14 -1 -14 3 0 5 -3 16 -6 25 -4 10 -1 16 9 16 8 0 17 -9
20 -19z m187 9 c0 -5 -5 -10 -11 -10 -5 0 -7 5 -4 10 3 6 8 10 11 10 2 0 4 -4
4 -10z m773 -60 c5 -58 4 -63 -9 -46 -14 20 -20 97 -7 109 9 10 10 8 16 -63z
m-1342 37 c-13 -13 -26 -3 -16 12 3 6 11 8 17 5 6 -4 6 -10 -1 -17z m649 -26
c0 -21 -16 -2 -24 29 -7 24 -6 24 8 6 9 -11 16 -27 16 -35z m818 24 c7 -14 12
-32 12 -40 0 -18 14 -19 42 -4 15 8 26 8 44 -1 27 -15 23 -30 -9 -30 -12 -1
-33 -7 -47 -15 -22 -13 -23 -14 -5 -15 17 0 17 -2 5 -10 -8 -5 -11 -10 -6 -10
5 0 3 -7 -4 -15 -7 -8 -16 -12 -21 -10 -4 3 -12 -2 -17 -12 -9 -16 -12 -16
-35 0 -23 15 -25 20 -16 52 6 19 7 40 4 45 -12 20 7 31 21 13 13 -16 14 -13 9
30 -6 51 5 62 23 22z m176 9 c3 -8 2 -12 -4 -9 -6 3 -10 10 -10 16 0 14 7 11
14 -7z m-408 -50 c-6 -6 -15 -9 -21 -6 -5 3 -4 7 3 10 7 2 12 8 12 13 0 6 -4
8 -9 5 -5 -4 -7 4 -4 15 6 21 6 21 18 -1 9 -18 10 -27 1 -36z m1148 40 c5 -12
1 -14 -17 -9 -35 11 -44 25 -15 25 14 0 29 -7 32 -16z m206 -14 c0 -18 -19
-11 -30 11 -11 19 -10 20 9 9 12 -6 21 -15 21 -20z m-1781 7 c11 -14 6 -27
-10 -27 -5 0 -6 7 -2 16 5 15 -8 15 -67 -2 -9 -2 -8 2 4 11 24 19 60 19 75 2z
m1363 -2 c0 -5 -5 -11 -11 -13 -6 -2 -11 4 -11 13 0 9 5 15 11 13 6 -2 11 -8
11 -13z m-1992 -4 c0 -5 -9 -11 -21 -14 -16 -4 -18 -3 -8 9 13 16 29 19 29 5z
m290 0 c0 -5 9 -7 20 -4 12 3 20 0 20 -6 0 -16 -52 -10 -58 7 -2 6 1 12 7 12
6 0 11 -4 11 -9z m1472 -10 c8 11 9 11 5 -1 -2 -8 -16 -16 -30 -18 -29 -4 -34
7 -15 26 9 9 14 9 21 -4 8 -14 11 -14 19 -3z m-322 -11 c0 -5 -2 -10 -4 -10
-3 0 -8 5 -11 10 -3 6 -1 10 4 10 6 0 11 -4 11 -10z m-1315 -14 c18 -13 18
-14 -2 -20 -12 -4 -24 -13 -27 -21 -3 -8 -17 -15 -31 -15 -19 0 -25 5 -25 21
0 13 -4 18 -12 13 -7 -4 -9 -3 -5 1 12 14 40 15 56 2 12 -10 14 -9 9 5 -11 29
7 36 37 14z m585 -6 c-24 -15 -36 -11 -14 4 10 8 21 12 24 10 2 -3 -2 -9 -10
-14z m808 -16 c7 4 4 -10 -4 -31 -18 -42 -32 -63 -44 -63 -13 0 -21 32 -11 44
6 7 8 22 4 34 -3 12 -2 30 1 39 7 16 9 15 25 -6 10 -13 23 -21 29 -17z m309 7
c-8 -22 -8 -36 2 -57 14 -32 -1 -57 -21 -35 -10 11 -10 13 0 7 16 -9 15 -4 -5
40 -17 36 -17 36 6 55 30 25 31 24 18 -10z m-1517 -3 c0 -6 -7 -7 -16 -4 -9 3
-18 6 -20 6 -3 0 -3 4 1 10 7 11 35 2 35 -12z m338 -23 c-11 -12 -38 8 -38 28
l0 21 22 -21 c12 -13 19 -25 16 -28z m158 28 c-6 -6 14 -27 34 -37 8 -3 4 -4
-8 -2 -32 6 -55 -3 -44 -18 5 -6 9 -21 10 -34 1 -19 -2 -21 -13 -12 -8 6 -11
18 -8 26 3 7 -2 17 -11 20 -9 3 -15 16 -14 29 1 13 5 22 9 19 4 -2 9 3 13 11
3 8 12 12 21 9 9 -4 14 -9 11 -11z m1249 -3 c11 -13 31 -20 52 -20 23 0 33 -4
31 -12 -9 -26 -52 -17 -85 18 -18 19 -28 34 -24 34 4 0 16 -9 26 -20z m2283 8
c9 -9 12 -9 12 0 0 7 7 12 15 12 10 0 15 -10 15 -30 0 -24 -4 -30 -22 -31 -18
-1 -17 -3 7 -8 24 -5 29 -11 30 -36 0 -28 -3 -30 -47 -35 -26 -3 -50 -9 -53
-12 -4 -3 4 -22 17 -42 19 -29 30 -36 63 -38 38 -3 40 -5 38 -33 -5 -70 -11
-78 -51 -71 -37 6 -37 6 -12 -9 l25 -16 -36 5 -36 4 2 -41 c2 -23 8 -43 14
-45 6 -2 11 -8 11 -13 0 -5 -9 -4 -20 3 -17 11 -22 10 -31 -2 -8 -12 -9 -12
-7 4 2 10 -3 21 -11 24 -9 3 -11 0 -7 -7 4 -7 2 -18 -4 -26 -10 -11 -10 -15
-1 -15 7 0 9 -4 6 -10 -3 -5 -2 -10 4 -10 5 0 17 -14 25 -31 13 -26 14 -35 4
-47 -11 -13 -10 -14 10 -8 23 8 32 -8 10 -18 -7 -3 -2 -3 12 0 14 4 28 12 32
18 4 6 10 8 13 4 3 -3 -7 -15 -22 -27 -15 -11 -33 -25 -40 -31 -6 -5 -36 -23
-65 -38 -29 -16 -67 -38 -84 -48 -17 -11 -55 -34 -85 -51 -47 -29 -55 -39 -26
-34 7 1 4 -23 -10 -71 -2 -10 -11 -18 -18 -18 -8 0 -12 -6 -9 -14 8 -21 -26
-88 -42 -82 -8 3 -17 -7 -23 -27 -6 -18 -22 -37 -36 -44 -31 -14 -66 -6 -58
13 3 8 -1 14 -10 14 -8 0 -17 -4 -19 -9 -4 -13 -144 4 -163 19 -17 14 -15 27
20 115 13 33 31 99 39 147 20 115 64 218 138 319 33 46 70 105 81 131 11 26
24 48 28 48 5 0 9 7 9 15 0 18 16 20 24 3 3 -7 3 -2 0 12 -3 18 4 34 28 59
l32 34 -55 -7 c-85 -11 -191 -34 -302 -66 -56 -17 -106 -30 -111 -30 -23 0 8
13 75 31 41 11 83 24 94 29 32 14 145 39 210 46 33 4 65 11 71 16 6 4 22 6 35
4 36 -7 36 -7 9 -16 l-25 -8 28 -1 c20 -1 30 6 39 24 12 27 20 30 48 15 14 -7
24 -5 42 11 l23 20 -25 -7 c-24 -6 -24 -6 -7 12 18 19 19 18 33 0 13 -19 14
-18 14 8 0 46 58 74 88 44z m-4984 -12 c-21 -15 -30 -14 -19 3 3 6 14 11 23
11 13 0 13 -2 -4 -14z m1586 -1 c-7 -9 -15 -13 -19 -10 -3 3 1 10 9 15 21 14
24 12 10 -5z m1160 5 c13 -8 13 -10 -2 -10 -9 0 -20 5 -23 10 -8 13 5 13 25 0z
m-2790 -26 c0 -21 -17 -17 -23 5 -3 14 -1 18 9 14 8 -3 14 -11 14 -19z m640
-14 c0 -20 -5 -30 -15 -30 -16 0 -19 17 -9 44 10 26 24 18 24 -14z m500 21 c0
-6 -4 -13 -10 -16 -5 -3 -10 1 -10 9 0 9 5 16 10 16 6 0 10 -4 10 -9z m130
-13 c0 -34 -16 -56 -31 -41 -8 8 -8 16 0 31 6 10 7 22 4 26 -3 3 1 6 10 6 11
0 17 -8 17 -22z m1006 6 c-3 -9 -6 -21 -6 -27 0 -8 -3 -8 -10 -1 -12 12 -3 44
12 44 6 0 7 -7 4 -16z m-1191 -12 c-3 -3 -11 0 -18 7 -9 10 -8 11 6 5 10 -3
15 -9 12 -12z m645 7 c0 -5 -4 -7 -10 -4 -5 3 -10 -1 -10 -9 0 -9 5 -16 11
-16 5 0 7 -4 4 -10 -10 -16 23 -68 53 -84 15 -9 22 -15 16 -16 -6 0 -23 9 -37
20 -14 11 -30 20 -36 20 -11 0 -13 6 -15 42 -1 10 -5 18 -11 19 -23 2 -36 21
-24 35 13 16 59 19 59 3z m99 2 c10 -7 10 -10 1 -16 -7 -4 -15 -3 -19 2 -3 6
-13 13 -21 16 -11 4 -9 6 5 6 11 0 26 -3 34 -8z m65 -23 c4 -17 2 -28 -4 -28
-5 0 -10 14 -10 32 0 36 4 35 14 -4z m711 22 c-3 -5 2 -10 11 -10 16 0 16 -1
-1 -20 -19 -21 -50 -27 -59 -12 -6 10 30 52 45 52 6 0 7 -4 4 -10z m-2348 -25
c0 -8 -4 -12 -9 -9 -5 3 -6 10 -3 15 9 13 12 11 12 -6z m83 -29 c0 -6 -7 -2
-15 8 -8 11 -15 25 -15 30 0 6 7 2 15 -8 8 -11 15 -25 15 -30z m1182 -12 c-11
-20 -14 -17 -26 35 l-5 24 21 -20 c16 -16 18 -25 10 -39z m306 26 c24 -23 29
-40 10 -40 -6 0 -8 3 -4 8 4 4 -9 12 -31 19 -21 6 -30 12 -20 12 10 1 15 6 12
11 -11 17 10 11 33 -10z m-428 -58 c0 -3 -7 3 -15 14 -8 10 -14 28 -14 39 0
14 4 10 14 -14 8 -18 15 -36 15 -39z m969 59 c10 -7 7 -9 -12 -8 -14 1 -23 5
-20 10 6 9 15 9 32 -2z m1034 -17 c15 -20 16 -28 7 -39 -7 -8 -20 -15 -28 -15
-13 0 -12 3 3 14 19 14 19 15 2 33 -9 11 -17 23 -17 26 0 14 16 5 33 -19z
m-3293 12 c0 -3 -4 -8 -10 -11 -5 -3 -10 -1 -10 4 0 6 5 11 10 11 6 0 10 -2
10 -4z m3456 -18 c4 -13 7 -31 5 -41 -2 -17 -1 -17 21 -3 14 9 28 12 37 7 10
-7 5 -11 -16 -15 -30 -7 -60 -33 -81 -71 -6 -11 -12 -15 -12 -8 0 6 11 25 25
41 22 26 23 31 10 48 -16 21 -20 64 -6 64 5 0 13 -10 17 -22z m-3046 3 c0 -5
-9 -11 -20 -14 -22 -6 -28 8 -7 16 19 8 27 8 27 -2z m1034 -6 c-4 -8 -1 -15 5
-15 6 0 11 5 11 12 0 6 2 9 4 7 2 -2 1 -25 -3 -51 -5 -27 -5 -48 0 -48 4 0 10
-7 13 -15 4 -13 1 -12 -18 2 -16 12 -20 20 -12 25 7 5 4 8 -8 8 -15 0 -16 3
-7 14 7 8 8 17 3 20 -11 7 -3 56 9 56 5 0 6 -7 3 -15z m528 -1 c-12 -8 -28
-13 -35 -11 -7 3 -1 9 13 15 37 16 47 14 22 -4z m555 -16 c-3 -7 -5 -2 -5 12
0 14 2 19 5 13 2 -7 2 -19 0 -25z m-1577 2 c0 -13 -5 -18 -15 -14 -11 5 -12 9
-2 20 16 18 17 17 17 -6z m260 10 c0 -5 -9 -10 -21 -10 -17 0 -19 -4 -13 -22
6 -20 5 -21 -9 -10 -13 11 -14 17 -4 33 12 20 47 26 47 9z m1105 0 c-3 -5 -10
-10 -16 -10 -5 0 -9 5 -9 10 0 6 7 10 16 10 8 0 12 -4 9 -10z m-1838 -22 c-3
-8 -6 -5 -6 6 -1 11 2 17 5 13 3 -3 4 -12 1 -19z m123 8 c-7 -7 -13 -7 -20 0
-6 6 -3 10 10 10 13 0 16 -4 10 -10z m200 10 c0 -16 -14 -36 -26 -36 -14 0
-19 22 -7 33 7 8 33 10 33 3z m2189 -19 c-13 -13 -28 -21 -33 -19 -10 6 30 42
47 42 5 0 -1 -10 -14 -23z m-2959 9 c0 -3 -4 -8 -10 -11 -5 -3 -10 -1 -10 4 0
6 5 11 10 11 6 0 10 -2 10 -4z m50 -5 c0 -15 -29 -33 -41 -25 -9 5 -7 11 6 21
22 15 35 17 35 4z m116 2 c-3 -4 1 -17 9 -29 8 -13 12 -30 9 -38 -7 -18 -20
-21 -29 -6 -3 6 -17 10 -31 10 -15 0 -23 4 -19 10 4 6 15 8 26 5 17 -6 18 -4
9 20 -5 14 -10 27 -10 29 0 1 10 2 21 3 12 1 18 -1 15 -4z m2100 -37 c3 -13 4
-35 2 -47 -3 -19 -7 -15 -17 21 -7 25 -18 51 -24 59 -10 12 -9 12 10 2 13 -6
25 -22 29 -35z m-1251 24 c8 -13 -5 -13 -25 0 -13 8 -13 10 2 10 9 0 20 -4 23
-10z m325 6 c0 -2 -7 -7 -16 -10 -8 -3 -12 -2 -9 4 6 10 25 14 25 6z m150 -71
c9 -11 -12 -45 -28 -45 -6 0 -11 8 -11 18 0 9 -3 29 -7 45 -4 17 -1 33 7 43
12 15 14 13 22 -17 5 -19 13 -39 17 -44z m1840 60 c10 -11 10 -19 2 -27 -6 -6
-8 -17 -5 -24 3 -8 1 -14 -5 -14 -12 0 -22 24 -22 56 0 28 12 31 30 9z m-1550
-10 c14 -16 10 -18 -14 -9 -9 3 -16 10 -16 15 0 14 16 11 30 -6z m130 5 c13
-9 13 -11 1 -19 -8 -5 -14 -23 -13 -40 1 -32 -4 -36 -32 -25 -20 8 -21 24 -2
24 22 0 30 19 16 35 -10 11 -10 15 -1 15 7 0 9 5 6 10 -8 13 6 13 25 0z m180
6 c0 -2 -9 -6 -20 -9 -11 -3 -20 -1 -20 4 0 5 9 9 20 9 11 0 20 -2 20 -4z
m1456 -12 c-5 -12 -2 -15 11 -10 14 6 15 4 6 -5 -6 -6 -16 -8 -22 -5 -14 9
-14 36 0 36 6 0 8 -7 5 -16z m1383 -11 c20 -14 38 -28 40 -30 2 -2 2 -6 -1 -9
-4 -3 -15 3 -26 13 -41 37 -52 44 -61 38 -5 -3 -12 -1 -16 5 -12 20 29 9 64
-17z m-3629 2 c7 -9 8 -15 2 -15 -5 0 -12 7 -16 15 -3 8 -4 15 -2 15 2 0 9 -7
16 -15z m90 11 c0 -2 -8 -10 -17 -17 -16 -13 -17 -12 -4 4 13 16 21 21 21 13z
m168 -37 c-5 -35 -28 -36 -28 -1 0 16 3 32 7 36 11 11 25 -10 21 -35z m162 26
c0 -8 -4 -15 -9 -15 -13 0 -22 16 -14 24 11 11 23 6 23 -9z m242 -7 c-7 -7
-12 -8 -12 -2 0 14 12 26 19 19 2 -3 -1 -11 -7 -17z m-1282 -3 c-7 -8 -17 -12
-22 -9 -6 4 -5 10 3 15 22 14 33 10 19 -6z m430 -6 c0 -14 5 -19 15 -16 8 4
17 2 20 -3 12 -19 -41 -10 -58 10 -22 26 -21 30 3 30 14 0 20 -7 20 -21z
m2706 6 c-21 -16 -32 -13 -21 4 3 6 14 11 23 11 15 -1 15 -2 -2 -15z m-3236
-35 c0 -3 -20 -5 -45 -5 -49 -1 -60 15 -22 32 16 8 27 6 44 -6 12 -9 22 -18
23 -21z m1242 5 c7 -35 -7 -40 -32 -13 -19 21 -20 24 -4 35 21 16 30 10 36
-22z m1083 25 c-3 -5 -12 -10 -18 -10 -7 0 -6 4 3 10 19 12 23 12 15 0z
m-1573 -18 c-14 -11 -21 -24 -17 -33 3 -9 0 -21 -8 -27 -11 -9 -13 -6 -9 21 5
38 19 57 41 57 12 0 11 -4 -7 -18z m2409 -28 c-12 -16 -21 -21 -21 -13 0 21
33 65 38 51 2 -7 -6 -24 -17 -38z m-3816 22 c12 -12 12 -15 0 -20 -8 -3 -22
-3 -30 0 -11 5 -12 9 -2 20 15 17 16 17 32 0z m412 -5 c-3 -12 8 -39 28 -70
28 -43 31 -51 17 -56 -30 -11 -62 39 -62 96 0 29 4 49 11 49 6 0 9 -9 6 -19z
m646 3 c4 14 5 14 3 0 -2 -27 -23 -28 -29 -2 -6 21 -5 22 8 5 12 -16 14 -17
18 -3z m2535 -9 c-3 -14 -1 -25 4 -25 5 0 2 -13 -7 -30 -9 -16 -17 -30 -19
-30 -3 0 -11 -3 -20 -6 -23 -9 -21 23 4 64 11 17 16 32 12 32 -7 0 19 20 27
20 2 0 1 -11 -1 -25z m1397 15 c3 -5 1 -10 -4 -10 -6 0 -11 5 -11 10 0 6 2 10
4 10 3 0 8 -4 11 -10z m-4212 -35 c-7 -21 -12 -19 -10 4 0 11 5 18 9 15 4 -3
5 -11 1 -19z m62 -29 c6 -36 5 -38 -9 -27 -9 8 -16 29 -16 49 0 45 15 31 25
-22z m-1245 30 c0 -8 -4 -18 -10 -21 -13 -8 -52 14 -45 26 10 15 55 11 55 -5z
m550 -7 c0 -18 -2 -19 -15 -9 -15 12 -12 30 6 30 5 0 9 -10 9 -21z m3200 -5
c0 -4 -6 -4 -14 -1 -7 3 -18 1 -22 -3 -5 -5 -15 -5 -24 1 -13 9 -12 10 3 5 11
-3 17 0 17 10 0 12 4 12 20 4 11 -6 20 -13 20 -16z m-2236 -3 c3 -5 -3 -11
-14 -14 -20 -5 -26 3 -13 16 9 10 21 9 27 -2z m1991 -1 c-3 -5 -10 -10 -16
-10 -5 0 -9 5 -9 10 0 6 7 10 16 10 8 0 12 -4 9 -10z m741 -16 c-4 -9 -9 -15
-11 -12 -3 3 -3 13 1 22 4 9 9 15 11 12 3 -3 3 -13 -1 -22z m-3666 6 c0 -5 -5
-10 -11 -10 -5 0 -7 5 -4 10 3 6 8 10 11 10 2 0 4 -4 4 -10z m365 -16 c24 -37
11 -41 -15 -5 -12 17 -17 31 -12 31 5 0 17 -12 27 -26z m985 11 c10 -13 9 -15
-9 -15 -12 0 -21 6 -21 15 0 8 4 15 9 15 5 0 14 -7 21 -15z m160 -10 c6 -8 9
-22 6 -32 -9 -30 8 -47 42 -40 19 4 34 1 41 -7 16 -19 -28 -46 -68 -43 -34 2
-37 7 -19 25 17 17 -3 15 -29 -3 -21 -14 -21 -14 -16 28 3 23 10 47 15 54 5 7
7 17 3 23 -10 15 11 12 25 -5z m455 6 c-6 -11 -45 -10 -45 1 0 4 12 8 26 8 14
0 23 -4 19 -9z m871 -25 c10 -33 10 -34 -13 -23 -14 6 -19 13 -13 17 6 4 8 14
4 23 -3 9 -2 17 2 17 5 0 14 -15 20 -34z m214 19 c0 -8 -4 -15 -10 -15 -5 0
-10 7 -10 15 0 8 5 15 10 15 6 0 10 -7 10 -15z m60 -2 c0 -7 -2 -13 -4 -13 -2
0 -11 -3 -19 -6 -11 -4 -14 0 -11 14 6 21 34 26 34 5z m-1491 -19 c10 -23 10
-26 -4 -20 -9 3 -19 6 -21 6 -2 0 -4 9 -4 20 0 28 15 25 29 -6z m21 16 c0 -5
-2 -10 -4 -10 -3 0 -8 5 -11 10 -3 6 -1 10 4 10 6 0 11 -4 11 -10z m1380 -5
c0 -8 -4 -15 -10 -15 -5 0 -10 7 -10 15 0 8 5 15 10 15 6 0 10 -7 10 -15z
m601 -18 c-10 -9 -11 -8 -5 6 3 10 9 15 12 12 3 -3 0 -11 -7 -18z m109 19 c0
-3 -4 -8 -10 -11 -5 -3 -10 -1 -10 4 0 6 5 11 10 11 6 0 10 -2 10 -4z m-2381
-32 c12 -11 10 -17 -17 -42 -18 -17 -32 -34 -32 -39 0 -4 -4 -25 -9 -45 -5
-21 -5 -38 -1 -38 4 0 10 18 13 41 5 42 40 89 64 89 21 0 15 -25 -12 -54 -14
-15 -25 -32 -26 -39 0 -7 -2 -23 -4 -37 -1 -14 2 -34 7 -45 5 -11 -2 -7 -16
10 -22 26 -25 28 -26 10 -1 -39 -30 15 -30 57 0 21 -4 38 -10 38 -21 0 -9 20
16 26 25 6 25 7 -14 24 -46 21 -58 35 -36 44 8 3 12 11 9 17 -10 16 106 0 124
-17z m2131 -4 c0 -14 -44 -20 -52 -7 -17 27 -9 36 22 26 17 -6 30 -14 30 -19z
m-2935 10 c-3 -5 -14 -10 -23 -9 -14 0 -13 2 3 9 27 11 27 11 20 0z m885 -11
c0 -5 -7 -9 -15 -9 -15 0 -20 12 -9 23 8 8 24 -1 24 -14z m2236 13 c15 -10 29
-72 16 -72 -10 0 -42 55 -42 72 0 10 11 10 26 0z m-3524 -31 c27 -25 31 -33
22 -48 -20 -32 -43 -28 -59 11 -30 70 -15 84 37 37z m1668 22 c0 -5 -7 -17
-15 -27 -12 -16 -18 -17 -27 -8 -9 9 -9 12 0 12 6 0 9 7 6 15 -4 10 0 15 15
15 12 0 21 -3 21 -7z m-705 -34 c14 -22 -3 -18 -26 7 -23 25 -23 26 -2 15 12
-6 25 -16 28 -22z m1889 0 c-10 -16 -24 -9 -24 12 0 18 2 19 15 9 8 -7 12 -16
9 -21z m-1814 -26 c0 -32 -5 -28 -14 10 -4 19 -3 26 4 22 5 -3 10 -18 10 -32z
m2335 11 c8 3 15 1 15 -4 0 -5 8 -10 18 -13 16 -4 16 -5 -2 -12 -11 -5 -26 -4
-37 3 -10 7 -26 9 -35 5 -18 -7 -35 13 -27 33 4 11 10 10 29 -2 13 -9 31 -14
39 -10z m85 16 c-8 -5 -22 -10 -30 -10 -13 0 -13 1 0 10 8 5 22 10 30 10 13 0
13 -1 0 -10z m474 -9 c8 -12 -21 -34 -34 -26 -8 5 -8 11 1 21 13 16 25 18 33
5z m-3451 -71 c-8 -9 -23 25 -22 50 0 22 2 21 13 -10 8 -19 11 -37 9 -40z
m307 50 c0 -5 -2 -10 -4 -10 -3 0 -8 5 -11 10 -3 6 -1 10 4 10 6 0 11 -4 11
-10z m95 0 c-3 -6 0 -7 9 -4 17 7 22 -11 7 -21 -15 -9 -91 6 -91 19 0 6 18 12
41 14 26 2 38 -1 34 -8z m1880 -11 c-10 -15 -25 -10 -19 6 4 8 10 12 15 9 5
-3 7 -10 4 -15z m-2415 -4 c0 -8 -7 -15 -15 -15 -8 0 -14 -6 -12 -12 1 -8 -10
-14 -26 -16 -38 -5 -31 18 13 39 19 10 36 18 38 18 1 1 2 -6 2 -14z m2921 -4
c13 -11 21 -22 18 -25 -8 -9 -79 22 -79 34 0 17 36 11 61 -9z m-3010 -10 c-6
-10 -7 -21 -4 -25 3 -3 1 -6 -6 -6 -14 0 -11 31 4 42 15 12 17 10 6 -11z m387
10 c11 -7 10 -9 -3 -14 -10 -5 -14 -3 -9 5 5 8 -1 9 -20 4 -18 -4 -25 -3 -21
4 7 12 35 13 53 1z m46 -7 c3 -8 2 -12 -4 -9 -6 3 -10 10 -10 16 0 14 7 11 14
-7z m2971 -9 c17 -13 25 -24 18 -25 -6 0 -15 5 -18 11 -4 6 -14 8 -22 5 -8 -3
-24 -1 -36 6 -21 11 -21 11 -2 19 28 11 27 11 60 -16z m-1301 -6 c-34 -13 -50
-11 -29 5 11 8 26 11 34 8 12 -4 11 -7 -5 -13z m-1979 -17 c-2 -3 -12 -1 -22
2 -15 6 -15 9 -3 16 13 8 35 -8 25 -18z m874 1 c-18 -7 -38 -18 -45 -24 -9 -8
-11 -5 -7 10 3 14 14 21 29 21 12 0 26 5 29 10 4 6 11 7 17 4 6 -4 -4 -13 -23
-21z m940 17 c10 -5 21 -17 25 -27 6 -17 5 -17 -8 0 -7 9 -18 17 -24 17 -6 0
-14 5 -17 10 -8 13 1 13 24 0z m424 -1 c-8 -8 -16 -8 -30 0 -16 9 -14 10 12
11 21 0 26 -3 18 -11z m591 -5 c3 -8 2 -12 -4 -9 -6 3 -10 10 -10 16 0 14 7
11 14 -7z m-174 -20 c0 -8 -10 -14 -25 -14 -22 0 -24 3 -15 20 11 21 40 17 40
-6z m-2380 6 c0 -16 -32 -19 -46 -6 -12 13 -10 15 16 14 16 -1 30 -4 30 -8z
m1787 -12 c-3 -8 -6 -5 -6 6 -1 11 2 17 5 13 3 -3 4 -12 1 -19z m218 2 c-4
-14 -2 -20 8 -20 10 0 13 -8 10 -24 -7 -33 -24 -38 -52 -15 -13 11 -18 19 -12
19 6 0 11 5 11 12 0 11 29 48 37 48 2 0 1 -9 -2 -20z m956 0 c13 -10 19 -19
13 -20 -7 0 -22 9 -35 20 -13 10 -19 19 -13 20 7 0 22 -9 35 -20z m-1541 -5
c7 -8 8 -15 2 -15 -5 0 -15 7 -22 15 -7 8 -8 15 -2 15 5 0 15 -7 22 -15z m843
-71 c-4 -10 -10 -11 -24 -3 -24 12 -24 27 -2 59 l17 24 7 -33 c4 -19 5 -40 2
-47z m-1463 35 c0 -23 -13 -25 -31 -3 -10 13 -10 17 1 24 18 11 30 3 30 -21z
m2218 9 c8 -10 -1 -13 -41 -14 -51 -1 -52 -1 -22 12 38 17 50 17 63 2z m-3073
-8 c-3 -5 -12 -7 -20 -3 -21 7 -19 13 6 13 11 0 18 -4 14 -10z m2925 1 c0 -6
-4 -13 -10 -16 -5 -3 -10 -15 -10 -27 0 -17 -3 -18 -15 -8 -12 10 -12 15 2 36
15 24 33 32 33 15z m-2760 -15 c0 -8 3 -23 7 -33 6 -15 5 -16 -9 -5 -11 9 -18
10 -23 2 -10 -16 -25 -2 -18 18 11 30 43 43 43 18z m1440 5 c0 -5 -7 -14 -15
-21 -16 -14 -18 -10 -9 14 6 17 24 22 24 7z m620 -21 c0 -5 -4 -10 -10 -10 -5
0 -10 5 -10 10 0 6 5 10 10 10 6 0 10 -4 10 -10z m221 -23 c10 -36 3 -34 -17
4 -11 23 -12 30 -3 27 7 -2 16 -16 20 -31z m319 18 c16 -19 0 -19 -26 0 -16
12 -16 14 -3 15 9 0 22 -7 29 -15z m-2035 -19 c0 -12 -8 -32 -17 -46 -9 -14
-23 -38 -33 -55 -9 -16 -14 -22 -11 -12 3 10 6 25 6 32 0 7 11 27 25 43 l25
30 -32 -2 c-24 -1 -33 4 -36 17 -3 15 3 18 35 16 32 -2 39 -6 38 -23z m637
-17 c27 -35 17 -90 -13 -82 -24 7 -27 13 -33 71 -4 36 -2 43 11 40 9 -2 25
-15 35 -29z m-362 13 c0 -5 -9 -8 -20 -7 -29 2 -33 10 -5 13 14 1 25 -2 25 -6z
m456 -21 c1 -21 -3 -28 -12 -24 -17 6 -18 40 -1 46 6 3 12 6 12 6 0 1 0 -12 1
-28z m304 10 c0 -5 -7 -11 -14 -14 -10 -4 -13 -1 -9 9 6 15 23 19 23 5z m1350
-1 c0 -5 -5 -10 -11 -10 -5 0 -7 5 -4 10 3 6 8 10 11 10 2 0 4 -4 4 -10z
m-3155 -10 c3 -5 1 -10 -4 -10 -6 0 -11 5 -11 10 0 6 2 10 4 10 3 0 8 -4 11
-10z m1747 -12 c-7 -7 -12 -8 -12 -2 0 14 12 26 19 19 2 -3 -1 -11 -7 -17z
m153 12 c3 -5 -3 -10 -15 -10 -12 0 -18 -4 -15 -10 3 -6 -4 -10 -16 -10 -21 0
-22 1 -4 20 20 22 40 26 50 10z m326 -12 c0 -10 2 -10 6 0 8 21 25 13 21 -10
-2 -18 -10 -23 -33 -23 -23 0 -31 5 -33 23 -3 17 2 22 17 22 12 0 21 -6 22
-12z m-401 -17 c0 -5 -9 -11 -20 -14 -23 -6 -25 -2 -7 17 12 14 27 12 27 -3z
m1170 9 c8 -5 11 -10 5 -10 -5 0 -17 5 -25 10 -8 5 -10 10 -5 10 6 0 17 -5 25
-10z m-2110 -34 c0 -35 -41 -98 -55 -85 -3 4 1 32 10 63 19 65 45 77 45 22z
m-415 5 c-3 -6 -11 -11 -17 -11 -6 0 -6 6 2 15 14 17 26 13 15 -4z m-785 -11
c9 -17 8 -20 -9 -20 -22 0 -35 15 -26 30 10 16 23 12 35 -10z m1903 3 c-11
-31 -15 -34 -29 -22 -20 16 -17 27 9 32 12 2 23 5 24 6 1 0 0 -7 -4 -16z
m-1748 -23 l20 -9 -20 0 c-11 0 -27 4 -35 9 -13 9 -13 10 0 9 8 0 24 -4 35 -9z
m1648 3 c-7 -2 -19 -2 -25 0 -7 3 -2 5 12 5 14 0 19 -2 13 -5z m287 -19 c0
-17 -22 -14 -28 4 -2 7 3 12 12 12 9 0 16 -7 16 -16z m1245 -32 c-6 -6 -55 30
-55 40 0 5 13 -1 29 -14 15 -13 27 -24 26 -26z m-3285 28 c0 -5 -11 -10 -24
-10 -14 0 -28 5 -31 10 -4 6 7 10 24 10 17 0 31 -4 31 -10z m2734 -6 c9 -8 16
-27 15 -42 l0 -27 -11 25 c-5 14 -14 33 -19 43 -11 21 -5 22 15 1z m-2174 -26
c0 -5 -11 -1 -25 8 -14 9 -25 18 -25 20 0 2 11 -2 25 -8 14 -6 25 -15 25 -20z
m1415 23 c3 -5 -4 -13 -16 -16 -23 -8 -34 -1 -24 14 8 13 32 14 40 2z m703
-23 c3 -17 -27 -33 -39 -21 -4 4 -10 18 -13 30 -6 19 -4 21 21 14 15 -4 29
-14 31 -23z m-1652 -16 c-10 -2 -22 0 -28 6 -6 6 0 7 19 4 21 -5 23 -7 9 -10z
m59 7 c10 -14 1 -21 -19 -13 -9 3 -13 10 -10 15 7 12 21 11 29 -2z m-495 -45
c0 -35 -18 -38 -45 -7 -36 41 -33 54 10 40 27 -8 35 -16 35 -33z m-482 11 c18
7 42 -12 42 -32 0 -10 -6 -13 -17 -9 -9 4 -20 1 -24 -5 -10 -16 -49 25 -49 52
0 19 1 19 16 4 9 -9 23 -14 32 -10z m1556 9 c13 -5 13 -9 -1 -40 -10 -20 -24
-34 -35 -34 -21 0 -23 18 -6 55 12 26 17 29 42 19z m516 -9 c0 -8 -10 -19 -21
-26 -13 -6 -19 -7 -15 -1 3 6 3 12 -1 15 -5 2 -2 2 5 1 7 -2 15 3 18 11 8 19
14 19 14 0z m39 -21 c-6 -8 -15 -11 -21 -8 -5 4 -5 11 1 18 6 7 7 17 3 22 -4
4 1 2 11 -5 13 -10 15 -17 6 -27z m195 11 c18 -28 13 -30 -32 -14 -25 9 -29
13 -19 24 18 21 33 18 51 -10z m201 -33 c-3 -7 3 -16 12 -19 13 -5 12 -8 -7
-15 -27 -10 -31 -8 -33 21 -1 11 -5 21 -9 21 -10 0 -11 34 -1 44 10 10 44 -36
38 -52z m335 47 c11 -7 4 -8 -25 -3 -50 8 -58 14 -19 14 16 0 36 -5 44 -11z
m-2762 -34 c-3 -3 -9 2 -12 12 -6 14 -5 15 5 6 7 -7 10 -15 7 -18z m1577 15
c3 -5 -1 -10 -9 -10 -9 0 -16 5 -16 10 0 6 4 10 9 10 6 0 13 -4 16 -10z m329
-14 c-3 -9 -10 -16 -15 -16 -14 0 -11 28 4 33 16 6 19 3 11 -17z m-407 -38
c-3 -7 -5 -2 -5 12 0 14 2 19 5 13 2 -7 2 -19 0 -25z m653 12 c0 -5 -10 -10
-22 -10 -19 0 -20 2 -8 10 19 13 30 13 30 0z m-1407 -31 c-7 -25 -10 -24 -15
5 -3 16 -1 23 7 19 7 -2 11 -13 8 -24z m1297 11 c0 -5 -5 -10 -11 -10 -5 0 -7
5 -4 10 3 6 8 10 11 10 2 0 4 -4 4 -10z m331 -7 c13 -16 12 -17 -3 -4 -17 13
-22 21 -14 21 2 0 10 -8 17 -17z m-773 -54 c-6 -4 -17 -5 -22 -2 -6 4 -5 8 2
11 7 2 9 9 5 15 -4 7 1 6 11 -2 13 -11 14 -16 4 -22z m208 0 c-15 -35 -29 -42
-34 -16 -4 21 15 47 34 47 11 0 11 -5 0 -31z m84 13 c0 -13 -12 -22 -22 -16
-10 6 -1 24 13 24 5 0 9 -4 9 -8z m321 -33 c-5 -13 -10 -19 -10 -12 -1 15 10
45 15 40 3 -2 0 -15 -5 -28z m-1141 -34 c0 -18 16 -20 23 -2 3 6 6 3 6 -8 1
-28 -14 -49 -29 -40 -9 6 -11 4 -5 -5 15 -24 -18 -4 -39 24 -18 23 -19 28 -6
36 23 15 50 12 50 -5z m70 -20 c0 -5 -5 -3 -10 5 -5 8 -10 20 -10 25 0 6 5 3
10 -5 5 -8 10 -19 10 -25z m280 11 c0 -3 -4 -8 -10 -11 -5 -3 -10 -1 -10 4 0
6 5 11 10 11 6 0 10 -2 10 -4z m-2 -46 c-7 -10 -14 -18 -15 -16 -6 6 9 36 18
36 5 0 4 -9 -3 -20z m29 -15 c0 -8 -4 -15 -9 -15 -4 0 -8 7 -8 15 0 8 4 15 8
15 5 0 9 -7 9 -15z m87 -17 c-4 -7 -14 -21 -22 -30 -8 -10 -12 -28 -10 -43 6
-30 -7 -34 -15 -4 -7 27 7 65 30 78 24 14 26 13 17 -1z m176 -2 c0 -3 -4 -8
-10 -11 -5 -3 -10 -1 -10 4 0 6 5 11 10 11 6 0 10 -2 10 -4z m233 -11 c22 7
22 7 2 -9 -27 -21 -42 -20 -55 5 -11 19 -10 20 10 9 11 -6 31 -8 43 -5z m-52
-35 c19 -11 27 -40 11 -40 -5 0 -19 11 -32 25 -24 26 -14 33 21 15z m-232 -42
c-6 -10 -21 -23 -35 -28 -32 -13 -84 -13 -84 -1 0 14 68 46 101 47 25 2 27 -1
18 -18z m180 -67 c0 -10 -2 -11 -6 -3 -2 6 -9 9 -14 6 -8 -5 -59 39 -59 50 0
2 18 -5 40 -16 23 -12 40 -27 39 -37z m-409 -8 c0 -29 -16 -30 -30 -2 -9 15
-8 24 1 35 15 18 29 2 29 -33z m80 5 c25 -4 25 -4 -7 -21 -47 -25 -53 -22 -53
26 0 41 1 42 18 20 9 -12 28 -23 42 -25z m1930 -8 c-8 -5 -19 -10 -25 -10 -5
0 -3 5 5 10 8 5 20 10 25 10 6 0 3 -5 -5 -10z m-40 -20 c0 -5 7 -10 15 -10 21
0 19 -18 -2 -23 -10 -2 -3 -4 15 -3 18 0 30 6 28 11 -2 6 7 10 20 10 13 0 24
-3 24 -8 0 -10 -51 -31 -67 -28 -15 2 -15 -4 -7 -37 4 -13 12 -21 19 -18 22 8
25 -5 5 -26 -10 -11 -23 -17 -29 -14 -5 4 -12 2 -16 -4 -3 -5 -15 -10 -25 -10
-10 0 -20 -6 -23 -12 -2 -7 -6 2 -9 20 -3 23 0 36 9 39 16 6 17 35 2 50 -8 8
-5 17 10 32 20 20 20 21 1 18 -10 -2 -28 -11 -40 -22 -11 -10 -22 -16 -25 -13
-8 8 64 55 88 57 4 1 7 -3 7 -9z m-60 -90 c0 -5 -5 -10 -11 -10 -7 0 -8 -12
-4 -32 5 -29 4 -31 -8 -16 -8 10 -17 16 -21 13 -3 -3 -2 1 4 7 5 7 10 20 10
30 0 10 7 18 15 18 8 0 15 -4 15 -10z m310 -5 c0 -8 -7 -15 -15 -15 -8 0 -15
7 -15 15 0 8 7 15 15 15 8 0 15 -7 15 -15z m-1520 -9 c0 -3 -4 -8 -10 -11 -5
-3 -10 -1 -10 4 0 6 5 11 10 11 6 0 10 -2 10 -4z m1114 -33 c-8 -9 -18 -12
-22 -8 -4 4 -1 10 6 12 6 3 10 9 7 14 -4 5 1 6 9 3 14 -5 14 -8 0 -21z m371
18 c3 -5 1 -12 -4 -15 -13 -8 -42 4 -35 15 7 12 31 12 39 0z m-1532 -28 c-7
-2 -19 -2 -25 0 -7 3 -2 5 12 5 14 0 19 -2 13 -5z"/>
<path d="M4542 3296 c7 -8 15 -12 17 -11 5 6 -10 25 -20 25 -5 0 -4 -6 3 -14z"/>
<path d="M6380 2820 c-9 -6 -10 -10 -3 -10 6 0 15 5 18 10 8 12 4 12 -15 0z"/>
<path d="M4230 2289 c-14 -4 -19 -7 -12 -8 7 -1 10 -5 7 -11 -8 -12 5 -13 24
-1 22 14 8 28 -19 20z"/>
<path d="M4038 2063 c7 -3 16 -2 19 1 4 3 -2 6 -13 5 -11 0 -14 -3 -6 -6z"/>
<path d="M3903 1981 c-19 -30 6 -44 32 -18 11 11 15 17 8 13 -6 -3 -16 0 -20
9 -7 12 -10 12 -20 -4z"/>
<path d="M3220 2009 c0 -11 4 -18 10 -14 5 3 7 12 3 20 -7 21 -13 19 -13 -6z"/>
<path d="M7075 2010 c3 -5 10 -10 16 -10 5 0 9 5 9 10 0 6 -7 10 -16 10 -8 0
-12 -4 -9 -10z"/>
<path d="M7356 1303 c-35 -9 -47 -28 -31 -49 20 -27 18 -37 -5 -31 -37 10 -28
-8 13 -26 23 -9 36 -12 29 -5 -15 15 -15 28 -1 28 10 0 59 45 59 54 0 2 -10 7
-22 10 -22 7 -22 7 -3 16 l20 9 -20 -1 c-11 0 -29 -3 -39 -5z"/>
<path d="M7281 1264 c0 -11 3 -14 6 -6 3 7 2 16 -1 19 -3 4 -6 -2 -5 -13z"/>
<path d="M7436 1244 c-8 -22 1 -31 16 -16 9 9 9 15 1 23 -7 7 -12 5 -17 -7z"/>
<path d="M7310 1171 c0 -6 5 -13 10 -16 6 -3 10 1 10 9 0 9 -4 16 -10 16 -5 0
-10 -4 -10 -9z"/>
<path d="M7258 1073 c7 -3 16 -2 19 1 4 3 -2 6 -13 5 -11 0 -14 -3 -6 -6z"/>
<path d="M7310 1060 c8 -5 20 -10 25 -10 6 0 3 5 -5 10 -8 5 -19 10 -25 10 -5
0 -3 -5 5 -10z"/>
<path d="M7400 840 c0 -5 5 -10 11 -10 5 0 7 5 4 10 -3 6 -8 10 -11 10 -2 0
-4 -4 -4 -10z"/>
<path d="M7430 820 c0 -5 5 -10 11 -10 5 0 7 5 4 10 -3 6 -8 10 -11 10 -2 0
-4 -4 -4 -10z"/>
<path d="M7390 780 c-8 -5 -10 -10 -5 -10 6 0 17 5 25 10 8 5 11 10 5 10 -5 0
-17 -5 -25 -10z"/>
<path d="M7177 576 c-4 -10 -1 -13 9 -9 7 3 14 9 14 14 0 14 -17 10 -23 -5z"/>
<path d="M6730 120 c0 -5 7 -10 15 -10 8 0 15 5 15 10 0 6 -7 10 -15 10 -8 0
-15 -4 -15 -10z"/>
<path d="M6715 80 c-3 -5 -1 -10 4 -10 6 0 11 5 11 10 0 6 -2 10 -4 10 -3 0
-8 -4 -11 -10z"/>
<path d="M646 5104 c-9 -25 -7 -72 4 -79 6 -3 22 3 36 14 38 30 74 28 74 -4 0
-14 9 -33 20 -42 11 -10 29 -26 40 -35 11 -10 20 -28 20 -41 0 -13 6 -32 14
-42 14 -19 15 -19 34 -2 16 14 24 16 47 7 16 -6 33 -18 40 -26 6 -9 22 -14 35
-12 22 3 23 4 7 20 -24 23 -21 37 8 48 l25 9 -21 35 c-13 22 -18 43 -14 55 5
17 -1 24 -35 37 -31 13 -42 23 -47 45 l-5 29 -138 0 c-117 0 -139 -2 -144 -16z"/>
<path d="M7664 3805 c-19 -14 -18 -14 4 -15 13 0 22 6 22 15 0 19 -1 19 -26 0z"/>
<path d="M7346 3581 c-15 -6 -16 -9 -5 -13 8 -3 20 1 27 8 14 15 7 17 -22 5z"/>
<path d="M7145 3450 c-3 -5 -1 -10 4 -10 6 0 11 5 11 10 0 6 -2 10 -4 10 -3 0
-8 -4 -11 -10z"/>
<path d="M7166 3353 c-11 -11 -6 -23 9 -23 8 0 15 4 15 9 0 13 -16 22 -24 14z"/>
</g>
</svg>
